<svg xmlns="http://www.w3.org/2000/svg" xmlns:xlink="http://www.w3.org/1999/xlink" width="20" height="20" viewBox="0 0 20 20">
	<defs>
		<style>
			.a{fill:none;}.b{opacity:0.2;}.c{clip-path:url(#a);}.d{fill:#ec2959;}.e{fill:#f9a21c;}.f{opacity:0.4;}.g{clip-path:url(#b);}.h{fill:#85701d;}.i{opacity:0.85;}.j{clip-path:url(#c);}.k{clip-path:url(#d);}.l{clip-path:url(#e);}.m{clip-path:url(#f);}.n{clip-path:url(#g);}.o{clip-path:url(#h);}.p{clip-path:url(#j);}.q{clip-path:url(#k);}
		</style>
		<clipPath id="a">
			<rect class="a" width="1.994" height="6.299" />
		</clipPath>
		<clipPath id="b">
			<rect class="a" width="5.444" height="6.901" />
		</clipPath>
		<clipPath id="c">
			<rect class="a" width="5.127" height="7.458" />
		</clipPath>
		<clipPath id="d">
			<rect class="a" width="4.697" height="4.684" />
		</clipPath>
		<clipPath id="e">
			<rect class="a" width="7.465" height="4.379" />
		</clipPath>
		<clipPath id="f">
			<rect class="a" width="6.333" height="2.545" />
		</clipPath>
		<clipPath id="g">
			<rect class="a" width="6.966" height="5.536" />
		</clipPath>
		<clipPath id="h">
			<rect class="a" />
		</clipPath>
		<clipPath id="j">
			<rect class="a" width="5.024" height="6.464" />
		</clipPath>
		<clipPath id="k">
			<rect class="a" width="6.374" height="5.135" />
		</clipPath>
	</defs>
	<g transform="translate(0 0)">
		<g class="b" transform="translate(3.069 5.115)">
			<g class="c">
				<path class="d" d="M120.295,122.116h0a7.016,7.016,0,0,0-1.746,3.179,6.942,6.942,0,0,0-.059,3.12l.014,0a2.317,2.317,0,0,0,1.806-2.352c.064-.242-.014-3.922-.014-3.942" transform="translate(-118.34 -122.116)" />
			</g>
		</g>
		<path class="e" d="M123.2,183.126a6.739,6.739,0,0,1-1.256-1.656,6.687,6.687,0,0,1-1.889.833,4.68,4.68,0,0,1-3.842-.885l.134.155.243.258c.212.222.812.721.812.721a10.281,10.281,0,0,0,1.944,1.244c.072.037.145.071.219.105a8.574,8.574,0,0,0,1.265.454,9.265,9.265,0,0,0,2.267.421s.135.01.362.013a10.861,10.861,0,0,0,1.276-.061,11.4,11.4,0,0,0,2.124-.465l.129-.048a4.68,4.68,0,0,1-3.789-1.09" transform="translate(-113.556 -164.791)" />
		<g class="f" transform="translate(12.062 1.148)">
			<g transform="translate(0 0)">
				<g class="g">
					<path class="h" d="M169.413,108.536a6.751,6.751,0,0,0,.771-1.917,4.7,4.7,0,0,0-1-3.818,7.972,7.972,0,0,0-1.03-.752,2.091,2.091,0,0,0-1.872-.3c-.915.313-1.372,1.846-1.442,2.108a6.957,6.957,0,0,1,4.577,4.684" transform="translate(-164.836 -101.635)" />
				</g>
			</g>
		</g>
		<g class="i" transform="translate(14.447 8.015)">
			<g class="j">
				<path class="h" d="M179.33,137.083h0c-.007.012-.012.022-.014.028s-1.79,3.2-1.848,3.446a2.32,2.32,0,0,0,.491,2.926l.031.029c.2.187,1.409,1.225,2.346,1a2.094,2.094,0,0,0,1.413-1.266,8.331,8.331,0,0,0,.478-1.174s.018-.054.047-.152l-.044.131a4.7,4.7,0,0,0-1.208-3.759,6.765,6.765,0,0,0-1.692-1.2" transform="translate(-177.146 -137.082)" />
			</g>
		</g>
		<g class="b" transform="translate(11.944 3.353)">
			<g class="k">
				<path class="h" d="M164.328,113.061a2.319,2.319,0,0,0,1.16,2.73c.18.175,3.41,1.906,3.41,1.906l.016.01v0a6.952,6.952,0,0,0-4.576-4.682c-.006.023-.009.037-.01.038" transform="translate(-164.217 -113.023)" />
			</g>
		</g>
		<path class="h" d="M190.78,114.77c-.01-.227-.024-.362-.024-.362a9.323,9.323,0,0,0-.491-2.257,8.681,8.681,0,0,0-.493-1.252q-.054-.109-.112-.216a10.3,10.3,0,0,0-1.3-1.907s-.518-.584-.745-.79l-.265-.235-.159-.129a4.7,4.7,0,0,1,1,3.818,6.717,6.717,0,0,1-.767,1.91l0,.007.007,0a6.706,6.706,0,0,1,1.685,1.2,4.7,4.7,0,0,1,1.208,3.759l.044-.131a11.484,11.484,0,0,0,.4-2.142,10.885,10.885,0,0,0,.02-1.279" transform="translate(-170.79 -105.31)" />
		<g class="f" transform="translate(8.386 15.094)">
			<g transform="translate(0)">
				<g class="l">
					<path class="e" d="M152.04,173.554l-.01-.011a6.966,6.966,0,0,1-6.333,1.585,6.748,6.748,0,0,0,1.256,1.656,4.679,4.679,0,0,0,3.789,1.09l-.129.048c.1-.032.15-.051.15-.051a8.326,8.326,0,0,0,1.156-.516,2.1,2.1,0,0,0,1.219-1.455c.217-1.032-1.084-2.338-1.1-2.347" transform="translate(-145.697 -173.543)" />
				</g>
			</g>
		</g>
		<g class="b" transform="translate(8.385 14.351)">
			<g class="m">
				<path class="e" d="M149.1,170.04c-.242.065-3.4,1.97-3.408,1.974h0a6.969,6.969,0,0,0,6.333-1.585,2.312,2.312,0,0,0-2.926-.389" transform="translate(-145.693 -169.676)" />
			</g>
		</g>
		<g class="i" transform="translate(1.42 12.099)">
			<g transform="translate(0 0)">
				<g class="n">
					<path class="e" d="M116.812,162.728l0-.007s-1.829-3.179-2.009-3.354a2.313,2.313,0,0,0-2.761-1.075s-.031.008-.079.024c-.349.111-1.745.612-2.016,1.5a2.1,2.1,0,0,0,.362,1.865,8,8,0,0,0,.783,1.008,4.68,4.68,0,0,0,3.842.885,6.686,6.686,0,0,0,1.888-.833l-.006-.008" transform="translate(-109.851 -158.156)" />
				</g>
			</g>
		</g>
		<g class="b" transform="translate(5.024 5.121)">
			<g transform="translate(0)">
				<g class="o">
					<path class="d" d="M128.4,122.114h0Z" transform="translate(-128.396 -122.114)" />
				</g>
			</g>
		</g>
		<g class="f" transform="translate(5.024 5.121)">
			<g transform="translate(0)">
				<g class="o">
					<path class="d" d="M128.4,122.116h0Z" transform="translate(-128.398 -122.116)" />
				</g>
			</g>
		</g>
		<g class="f" transform="translate(0 5.113)">
			<g class="p">
				<path class="d" d="M105.825,125.288a7.019,7.019,0,0,1,1.746-3.179,6.714,6.714,0,0,0-2.058.267,4.689,4.689,0,0,0-2.829,2.75l.023-.136c-.021.1-.031.156-.031.156a8.444,8.444,0,0,0-.129,1.261,2.1,2.1,0,0,0,.654,1.783c.75.671,2.4.262,2.565.218a6.947,6.947,0,0,1,.059-3.12" transform="translate(-102.547 -122.107)" />
			</g>
		</g>
		<path class="d" d="M106.078,101.892a6.717,6.717,0,0,1,2.059-.267,6.726,6.726,0,0,1,.218-2.055,4.691,4.691,0,0,1,2.677-2.9l-.2.039-.345.083c-.3.074-1.028.347-1.028.347a10.275,10.275,0,0,0-2.045,1.07c-.067.045-.912.7-1.222,1.011a9.311,9.311,0,0,0-1.492,1.76s-.075.113-.19.308a10.847,10.847,0,0,0-.582,1.139,11.468,11.468,0,0,0-.654,2.077l-.023.136a4.689,4.689,0,0,1,2.829-2.75" transform="translate(-103.113 -96.49)" />
		<g class="i" transform="translate(5.016)">
			<g transform="translate(0)">
				<g class="q">
					<path class="d" d="M134.317,96.354a2.091,2.091,0,0,0-1.795-.613,7.954,7.954,0,0,0-1.262.179,4.691,4.691,0,0,0-2.677,2.9,6.715,6.715,0,0,0-.218,2.055c.007,0,3.687-.011,3.923-.079a2.314,2.314,0,0,0,2.3-1.864s0-.016.01-.041c.063-.271.374-1.831-.285-2.536" transform="translate(-128.356 -95.74)" />
				</g>
			</g>
		</g>
	</g>
</svg>
