<svg width="82" height="82" viewBox="0 0 82 82" fill="none" xmlns="http://www.w3.org/2000/svg">
  <path d="M7.61305 21.058C7.66143 21.1165 7.71703 21.2881 7.71414 21.3514L6.03668 31.1236C5.79764 32.5168 7.13865 33.446 8.3534 32.8076L17.126 28.1986C17.197 28.1706 17.3782 28.1707 17.438 28.1932L26.22 32.8073C27.4332 33.4448 28.7721 32.495 28.5369 31.1233L26.8611 21.3637C26.8564 21.2878 26.9122 21.1163 26.9519 21.0667L34.0562 14.1457C35.0382 13.1895 34.5495 11.6213 33.1717 11.4214L23.3647 9.99804C23.291 9.97898 23.1449 9.8729 23.1098 9.81955L18.7197 0.928602C18.1131 -0.299714 16.4719 -0.319262 15.8555 0.928442L11.4698 9.80897C11.4289 9.87323 11.2826 9.9793 11.2211 9.99612L1.40211 11.4217C0.0460453 11.6184 -0.480264 13.1746 0.517401 14.1459L7.61305 21.058ZM11.5662 12.3747C12.3878 12.2554 13.251 11.6285 13.6186 10.8843L17.2875 3.45621L20.9552 10.8841C21.3227 11.6285 22.186 12.2553 23.0076 12.3746L31.2085 13.5652L25.2754 19.3453C24.6805 19.9249 24.3508 20.9394 24.4912 21.758L25.8922 29.9203L18.5558 26.0656C17.821 25.6797 16.7547 25.6797 16.0199 26.0656L8.68169 29.9206L10.0828 21.758C10.2233 20.9394 9.89324 19.9247 9.29852 19.3455L3.36556 13.5654L11.5662 12.3747Z" fill="white" />
  <path d="M79.997 38.406H65.5532C64.4488 38.406 63.5505 39.3044 63.5505 40.4089C63.6216 40.6736 63.5505 41.0429 63.5505 41.3187C55.9593 40.6946 50.5687 35.246 50.1729 27.6654C49.9435 23.2703 52.2971 12.2877 45.1639 12.2877C40.5872 12.2877 38.4624 16.0622 37.4859 19.2287C36.6739 21.862 36.262 25.24 36.262 29.2685C36.262 30.8184 38.6653 30.8184 38.6653 29.2685C38.6653 25.4802 39.0411 22.3407 39.7824 19.9369C40.8709 16.4071 42.6312 14.691 45.1639 14.691C48.0928 14.691 47.8277 18.5584 47.824 20.586C47.8166 24.4667 47.3711 28.4403 48.4444 32.2314C50.3577 38.9902 56.7064 43.2515 63.5465 43.7309V72.5881C62.1589 73.981 55.9282 79.5966 45.7191 79.5966H28.9288C30.6998 77.271 30.5186 73.9171 28.5162 71.7907C32.2103 70.1948 33.3435 65.3234 30.6979 62.2723C36.3589 60.392 35.9805 51.9861 30.1677 50.6318C31.8934 48.4942 31.9415 45.3734 30.2802 43.1848H36.2508C36.2812 45.092 36.531 48.8962 37.8687 52.868C40.3953 60.3697 45.5807 64.7888 52.8642 65.648C54.403 65.829 54.6853 63.4426 53.1459 63.2612C44.3697 62.226 39.9555 54.7521 38.9093 46.5769C38.4112 42.6849 38.6656 38.642 38.6656 34.7291C38.6656 33.1792 36.2623 33.1792 36.2623 34.7291V40.7812L9.6809 40.7821C4.73839 40.7821 1.84025 46.6673 4.92056 50.5754C-0.416877 51.564 -1.76477 58.8472 2.86691 61.6895C-0.941103 65.062 1.02859 71.5451 6.05713 72.2283C3.01559 76.1401 5.91422 81.9912 10.8397 81.9912L45.7192 82C54.5553 82 60.5883 78.2391 63.5508 75.8251V78.1801C63.5508 79.2846 64.4491 80.183 65.5535 80.183H70.5941C72.1438 80.183 72.1438 77.7796 70.5941 77.7796H65.954V40.8094H79.5968V77.7796H75.8971C74.3473 77.7796 74.3473 80.183 75.8971 80.183H79.9973C81.1017 80.183 82 79.2846 82 78.1801V40.4089C81.9997 39.3044 81.1014 38.406 79.997 38.406ZM9.68074 43.1858H25.4526C27.4676 43.1858 29.1069 44.8238 29.1069 46.8371C29.1069 48.7403 27.6418 50.3072 25.7791 50.4727H9.35406C7.4909 50.307 6.02509 48.7401 6.02509 46.8371C6.02509 44.8237 7.6649 43.1858 9.68074 43.1858ZM6.02605 60.1775C4.01149 60.1775 2.37232 58.5396 2.37232 56.5265C2.37232 54.5137 4.01133 52.8761 6.02605 52.8761H28.7929C30.8075 52.8761 32.4466 54.5137 32.4466 56.5265C32.4466 58.5396 30.8076 60.1775 28.7929 60.1775H6.02605ZM3.22291 66.232C3.22291 64.2248 4.83725 62.5911 6.82505 62.581H26.1386C28.1456 62.5911 29.7753 64.2248 29.7753 66.232C29.7753 68.2447 28.1357 69.882 26.1202 69.882H6.87664C4.86192 69.882 3.22291 68.2447 3.22291 66.232ZM7.18633 75.9365C7.18633 73.9233 8.82518 72.2855 10.8394 72.2855H24.1082C26.1226 72.2855 27.7616 73.9233 27.7616 75.9365C27.7616 77.9499 26.1227 79.5879 24.1082 79.5879H10.8394C8.82518 79.5879 7.18633 77.9499 7.18633 75.9365Z" fill="white" />
  <path d="M76.9412 47.9805C76.9412 45.6833 75.0724 43.8144 72.7754 43.8144C70.4786 43.8144 68.61 45.6833 68.61 47.9805C68.61 50.2776 70.4786 52.1463 72.7754 52.1463C75.0724 52.1463 76.9412 50.2776 76.9412 47.9805ZM72.7754 49.7429C71.8039 49.7429 71.0132 48.9523 71.0132 47.9805C71.0132 47.0086 71.8039 46.2179 72.7754 46.2179C73.7473 46.2179 74.538 47.0086 74.538 47.9805C74.538 48.9523 73.7473 49.7429 72.7754 49.7429Z" fill="white" />
</svg>
