<svg id="Layer_1" enable-background="new 0 0 512 512" height="512" viewBox="0 0 512 512" width="512" xmlns="http://www.w3.org/2000/svg">
  <g id="XMLID_1295_">
    <g id="XMLID_194_">
      <path id="XMLID_217_" d="m434.763 382h-1.912c8.198-9.742 13.149-22.301 13.149-36v-20c0-30.878-25.121-56-56-56s-56 25.122-56 56v20c0 13.699 4.952 26.258 13.149 36h-1.912c-42.589 0-77.237 34.649-77.237 77.238v42.762c0 5.523 4.478 10 10 10h224c5.522 0 10-4.477 10-10v-42.762c0-42.589-34.648-77.238-77.237-77.238zm-80.763-36v-20c0-19.851 16.149-36 36-36s36 16.149 36 36v20c0 19.851-16.149 36-36 36s-36-16.149-36-36zm138 146h-204v-32.762c0-31.561 25.677-57.238 57.237-57.238h34.763v19c0 5.523 4.478 10 10 10s10-4.477 10-10v-19h34.763c31.56 0 57.237 25.677 57.237 57.238z" />
      <path id="XMLID_227_" d="m285.656 220.125h22.975l33.078 33.078c1.913 1.913 4.471 2.929 7.073 2.929 1.288 0 2.588-.25 3.825-.762 3.736-1.548 6.173-5.194 6.173-9.239v-26.007h67.672c20.723 0 37.581-16.859 37.581-37.581v-100.957c0-20.722-16.858-37.581-37.581-37.581h-131.485v-1.133c0-23.64-19.233-42.872-42.872-42.872h-34.094c-5.522 0-10 4.477-10 10s4.478 10 10 10h34.094c12.611 0 22.872 10.26 22.872 22.872v120.322c0 12.611-10.261 22.872-22.872 22.872h-32.317c-2.652 0-5.195 1.054-7.071 2.929l-25.842 25.842v-18.771c0-5.523-4.478-10-10-10h-86.027c-12.611 0-22.871-10.26-22.871-22.872v-120.322c0-12.612 10.26-22.872 22.871-22.872h37.166c5.522 0 10-4.477 10-10s-4.478-10-10-10h-37.166c-23.64 0-42.871 19.232-42.871 42.872v120.322c0 23.64 19.231 42.872 42.871 42.872h76.026v32.914c0 4.044 2.437 7.691 6.173 9.239 1.237.513 2.537.762 3.825.762 2.603 0 5.16-1.017 7.073-2.93l39.984-39.984h28.175c1.376 0 2.735-.072 4.079-.199 7.036 8.937 17.774 14.257 29.483 14.257zm9.311-56.931v-99.189h131.485c9.694 0 17.581 7.887 17.581 17.581v100.958c0 9.694-7.887 17.581-17.581 17.581h-77.672c-5.522 0-10 4.477-10 10v11.865l-18.936-18.936c-1.876-1.875-4.419-2.929-7.071-2.929h-27.117c-3.048 0-5.952-.777-8.499-2.181 10.778-7.794 17.81-20.463 17.81-34.75z" />
      <path id="XMLID_1647_" d="m109.339 87.392c-2.364 7.304.227 15.235 6.447 19.734l17.7 12.801-6.768 20.677c-2.391 7.305.181 15.249 6.399 19.767 3.104 2.255 6.737 3.382 10.372 3.382 3.646 0 7.294-1.135 10.403-3.405l17.573-12.826 17.572 12.826c6.208 4.533 14.558 4.54 20.775.023 6.219-4.518 8.79-12.461 6.399-19.767l-6.768-20.677 17.7-12.801c6.221-4.499 8.812-12.43 6.447-19.734s-9.111-12.212-16.789-12.212h-21.865l-6.682-20.67c-2.363-7.308-9.111-12.218-16.792-12.218-7.68 0-14.428 4.91-16.791 12.219l-6.682 20.669h-21.865c-7.674 0-14.421 4.907-16.785 12.212zm45.932 7.788c4.338 0 8.181-2.796 9.516-6.924l6.681-20.666 6.68 20.666c1.335 4.128 5.178 6.924 9.516 6.924h21.873l-17.724 12.818c-3.523 2.548-4.996 7.081-3.644 11.214l6.769 20.679-17.574-12.827c-3.512-2.564-8.279-2.564-11.791 0l-17.575 12.828 6.769-20.679c1.353-4.133-.12-8.666-3.644-11.214l-17.726-12.819z" />
      <path id="XMLID_1669_" d="m331.109 142.065h49.891c5.522 0 10-4.477 10-10s-4.478-10-10-10h-49.891c-5.522 0-10 4.477-10 10s4.478 10 10 10z" />
      <path id="XMLID_1691_" d="m166.763 382h-1.531c8.198-9.742 13.149-22.301 13.149-36v-20c0-30.878-25.121-56-56-56s-56 25.122-56 56v20c0 13.699 4.952 26.258 13.149 36h-2.293c-42.589 0-77.237 34.649-77.237 77.238v42.762c0 5.523 4.478 10 10 10h224c5.522 0 10-4.477 10-10v-42.762c0-42.589-34.648-77.238-77.237-77.238zm-80.382-56c0-19.851 16.149-36 36-36s36 16.149 36 36v20c0 19.851-16.149 36-36 36s-36-16.149-36-36zm137.619 166h-204v-32.762c0-31.561 25.677-57.238 57.237-57.238h34.763v19c0 5.523 4.478 10 10 10s10-4.477 10-10v-19h34.763c31.56 0 57.237 25.677 57.237 57.238z" />
      <path id="XMLID_1696_" d="m173 20c2.64 0 5.21-1.07 7.069-2.93 1.861-1.86 2.931-4.44 2.931-7.07s-1.07-5.21-2.931-7.07c-1.859-1.86-4.439-2.93-7.069-2.93s-5.21 1.07-7.07 2.93c-1.861 1.86-2.93 4.44-2.93 7.07s1.069 5.21 2.93 7.07 4.44 2.93 7.07 2.93z" />
    </g>
  </g>
</svg>
