<svg xmlns="http://www.w3.org/2000/svg" width="33.488" height="33.488" viewBox="0 0 33.488 33.488">
    <defs>
        <style>
            .cls-1,.cls-4{fill:none}.cls-1{stroke:#fff}.cls-2{fill:#fff}.cls-3{stroke:none}
        </style>
    </defs>
    <g id="alert-info" transform="translate(0 .453)">
        <g id="Elipse_3" class="cls-1" data-name="Elipse 3" transform="translate(0 -.453)">
            <circle cx="16.744" cy="16.744" r="16.744" class="cls-3"/>
            <circle cx="16.744" cy="16.744" r="16.244" class="cls-4"/>
        </g>
        <path id="Caminho_7215" d="M36.1 11.39a2.24 2.24 0 0 1-.931.425 5.065 5.065 0 0 1-1.318.185 2.084 2.084 0 0 1-1.42-.445 1.442 1.442 0 0 1-.507-1.132 4 4 0 0 1 .038-.545q.039-.279.122-.629l.629-2.225q.084-.32.142-.606a2.633 2.633 0 0 0 .057-.521.807.807 0 0 0-.176-.595.994.994 0 0 0-.672-.168c-.163 0-.325.063-.5.076a.341.341 0 0 1-.272-.541 1.936 1.936 0 0 1 1.139-.61 4.568 4.568 0 0 1 1.3-.093 4.071 4.071 0 0 1 1.209.532 1.455 1.455 0 0 1 .492 1.139c0 .1-.011.267-.034.511a3.415 3.415 0 0 1-.126.671l-.626 2.216a5.887 5.887 0 0 0-.138.61 3.142 3.142 0 0 0-.061.518.746.746 0 0 0 .2.6 1.113 1.113 0 0 0 .685.16 1.829 1.829 0 0 0 .518-.08c.325-.072.488.298.25.547zm.326-9.99a1.3 1.3 0 0 1-.438.987 1.491 1.491 0 0 1-1.054.408 1.507 1.507 0 0 1-1.06-.408 1.294 1.294 0 0 1-.442-.987 1.307 1.307 0 0 1 .442-.99 1.564 1.564 0 0 1 2.114 0 1.309 1.309 0 0 1 .438.99z" class="cls-2" data-name="Caminho 7215" transform="translate(-17.219 10.547)"/>
    </g>
</svg>
