<svg xmlns="http://www.w3.org/2000/svg" xmlns:xlink="http://www.w3.org/1999/xlink" width="125" height="196" viewBox="0 0 125 196"><defs><style>.a{opacity:0.6;}.b{opacity:0;}.c{fill:#fff;}.d{opacity:0.032;}.e{fill:#fbfbfb;}.f{opacity:0.065;}.g{fill:#f7f7f7;}.h{opacity:0.097;}.i{fill:#f3f3f4;}.j{opacity:0.129;}.k{fill:#f0eff0;}.l{opacity:0.161;}.m{fill:#ecebec;}.n{opacity:0.193;}.o{fill:#e8e8e8;}.p{opacity:0.226;}.q{fill:#e4e4e5;}.r{opacity:0.258;}.s{fill:#e0e0e1;}.t{opacity:0.29;}.u{fill:#dcdcdd;}.v{opacity:0.323;}.w{fill:#d8d8d9;}.x{opacity:0.355;}.y{fill:#d4d4d5;}.z{opacity:0.387;}.aa{fill:#d1d0d2;}.ab{opacity:0.419;}.ac{fill:#cdccce;}.ad{opacity:0.452;}.ae{fill:#c9c8ca;}.af{opacity:0.484;}.ag{fill:#c5c4c6;}.ah{opacity:0.516;}.ai{fill:#c1c1c3;}.aj{opacity:0.548;}.ak{fill:#bdbdbf;}.al{opacity:0.581;}.am{fill:#b9b9bb;}.an{opacity:0.613;}.ao{fill:#b5b5b7;}.ap{opacity:0.645;}.aq{fill:#b2b1b4;}.ar{opacity:0.677;}.as{fill:#aeadb0;}.at{opacity:0.71;}.au{fill:#aaa9ac;}.av{opacity:0.742;}.aw{fill:#a6a5a8;}.ax{opacity:0.774;}.ay{fill:#a2a1a4;}.az{opacity:0.807;}.ba{fill:#9e9da1;}.bb{opacity:0.839;}.bc{fill:#9a9a9d;}.bd{opacity:0.871;}.be{fill:#969699;}.bf{opacity:0.903;}.bg{fill:#939295;}.bh{opacity:0.936;}.bi{fill:#8f8e92;}.bj{opacity:0.968;}.bk{fill:#8b8a8e;}.bl{fill:#87868a;}.bm{fill:url(#a);}.bn{filter:url(#e);}</style><linearGradient id="a" y1="1" x2="0.747" y2="0.328" gradientUnits="objectBoundingBox"><stop offset="0" stop-color="#f9a21c"/><stop offset="1" stop-color="#faaf3d"/></linearGradient><filter id="e" x="54.988" y="77.898" width="31.901" height="27.227" filterUnits="userSpaceOnUse"><feOffset dx="2" dy="2" input="SourceAlpha"/><feGaussianBlur stdDeviation="2" result="f"/><feFlood flood-opacity="0.4"/><feComposite operator="in" in2="f"/><feComposite in="SourceGraphic"/></filter></defs><g transform="translate(-391.4 -251.6)"><g transform="translate(391.4 251.6)"><g transform="translate(0)"><g class="a"><g class="b" transform="translate(7.538 6.031)"><path class="c" d="M364.739,556.318a4.171,4.171,0,1,0,0,8.342H407a4.171,4.171,0,1,0,0-8.342Zm42.214,11.86H364.689a7.689,7.689,0,1,1,0-15.378h42.264a7.689,7.689,0,0,1,0,15.378Z" transform="translate(-327.14 -408.166)"/><path class="c" d="M366.969,593.718a12.112,12.112,0,0,0,11.257,10.252l1.407.1.2,1.407a9.242,9.242,0,0,0,18.293.05l.2-1.407,1.407-.1a12.011,12.011,0,0,0,11.207-10.252H366.969Zm22.012,23.167a12.705,12.705,0,0,1-12.363-9.548A15.538,15.538,0,0,1,363.3,591.959V590.2h51.36v1.759a15.576,15.576,0,0,1-13.317,15.378A12.717,12.717,0,0,1,388.98,616.885Z" transform="translate(-330.274 -426.916)"/><path class="c" d="M331.57,401.074h48.721V383.99l.251-.4a282.361,282.361,0,0,1,18.916-27.625A54.1,54.1,0,0,0,411.3,322.047a55.219,55.219,0,0,0-110.437,0,54.157,54.157,0,0,0,11.791,33.919,245.125,245.125,0,0,1,18.615,27.125l.251.4v17.584Zm52.283,3.5h-55.8V384.44a245.006,245.006,0,0,0-18.114-26.326A57.556,57.556,0,0,1,297.4,322.047a58.732,58.732,0,0,1,117.462,0,57.5,57.5,0,0,1-12.594,36.067,266.307,266.307,0,0,0-18.415,26.826Z" transform="translate(-297.4 -263.6)"/><rect class="c" width="4.02" height="62.416" transform="translate(35.973 77.718) rotate(-12.357)"/><rect class="c" width="63.723" height="3.518" transform="matrix(0.21, -0.978, 0.978, 0.21, 64.239, 139.232)"/><rect class="c" width="19.75" height="3.518" transform="translate(49.157 177.104)"/><path class="c" d="M393.873,442.739l-3.518-13.468-9.6,6.382-1.357-2.111,12.463-8.342,2.513,9.6Z" transform="translate(-338.265 -344.386)"/></g><g class="d" transform="translate(7.287 5.88)"><path class="e" d="M364.239,555.968a4.171,4.171,0,0,0,0,8.342H406.5a4.171,4.171,0,0,0,0-8.342Zm42.214,11.81H364.189a7.689,7.689,0,1,1,0-15.378h42.264a7.689,7.689,0,1,1,0,15.378Z" transform="translate(-326.64 -407.816)"/><path class="e" d="M366.469,593.318a12.112,12.112,0,0,0,11.257,10.252l1.407.1.2,1.407a9.242,9.242,0,0,0,18.293.05l.2-1.407,1.407-.1a12.011,12.011,0,0,0,11.207-10.252H366.469Zm22.012,23.167a12.705,12.705,0,0,1-12.363-9.548A15.538,15.538,0,0,1,362.8,591.559V589.8h51.36v1.759a15.576,15.576,0,0,1-13.317,15.378A12.718,12.718,0,0,1,388.48,616.485Z" transform="translate(-329.774 -426.566)"/><path class="e" d="M331.07,400.774h48.721V383.69l.251-.4a282.361,282.361,0,0,1,18.916-27.625A54.1,54.1,0,0,0,410.8,321.747a55.219,55.219,0,0,0-110.437,0,54.157,54.157,0,0,0,11.791,33.919,245.123,245.123,0,0,1,18.615,27.125l.251.4v17.584Zm52.283,3.5h-55.8V384.14a245,245,0,0,0-18.114-26.326A57.556,57.556,0,0,1,296.9,321.747a58.732,58.732,0,0,1,117.462,0,57.5,57.5,0,0,1-12.594,36.067,266.323,266.323,0,0,0-18.415,26.826v19.632Z" transform="translate(-296.9 -263.3)"/><rect class="e" width="4.02" height="62.416" transform="translate(35.971 77.67) rotate(-12.357)"/><rect class="e" width="63.723" height="3.518" transform="matrix(0.21, -0.978, 0.978, 0.21, 64.249, 139.146)"/><rect class="e" width="19.75" height="3.518" transform="translate(49.157 177.054)"/><path class="e" d="M393.424,442.138l-3.669-13.368-9.448,6.483-1.407-2.06,12.312-8.493,2.663,9.548Z" transform="translate(-337.765 -343.986)"/></g><g class="f" transform="translate(7.086 5.679)"><path class="g" d="M363.789,555.618a4.171,4.171,0,0,0,0,8.342h42.264a4.171,4.171,0,0,0,0-8.342Zm42.264,11.86H363.789a7.689,7.689,0,0,1,0-15.378h42.264a7.689,7.689,0,0,1,0,15.378Z" transform="translate(-326.24 -407.466)"/><path class="g" d="M366.018,592.918a12.112,12.112,0,0,0,11.257,10.252l1.407.1.2,1.407a9.242,9.242,0,0,0,18.293.05l.2-1.407,1.407-.1a12.011,12.011,0,0,0,11.207-10.252H366.018Zm22.062,23.167a12.705,12.705,0,0,1-12.363-9.548A15.538,15.538,0,0,1,362.4,591.159V589.4h51.36v1.759a15.576,15.576,0,0,1-13.317,15.378A12.748,12.748,0,0,1,388.08,616.085Z" transform="translate(-329.374 -426.166)"/><path class="g" d="M330.67,400.374h48.721V383.29l.251-.4a282.375,282.375,0,0,1,18.916-27.625A54.1,54.1,0,0,0,410.4,321.347a55.219,55.219,0,0,0-110.437,0,54.157,54.157,0,0,0,11.791,33.919,245.129,245.129,0,0,1,18.615,27.125l.251.4v17.584Zm52.233,3.5H327.157V383.74a245,245,0,0,0-18.113-26.326A57.555,57.555,0,0,1,296.5,321.347a58.732,58.732,0,0,1,117.462,0,57.5,57.5,0,0,1-12.594,36.067,266.32,266.32,0,0,0-18.415,26.826v19.632Z" transform="translate(-296.5 -262.9)"/><rect class="g" width="4.02" height="62.416" transform="translate(35.92 77.672) rotate(-12.357)"/><rect class="g" width="63.723" height="3.518" transform="matrix(0.21, -0.978, 0.978, 0.21, 64.199, 139.159)"/><rect class="g" width="19.75" height="3.518" transform="translate(49.107 177.054)"/><path class="g" d="M393.024,441.538l-3.87-13.267-9.3,6.634-1.457-2.06,12.162-8.644,2.764,9.448Z" transform="translate(-337.315 -343.535)"/></g><g class="h" transform="translate(6.835 5.478)"><path class="i" d="M363.289,555.218a4.171,4.171,0,1,0,0,8.342h42.264a4.171,4.171,0,1,0,0-8.342Zm42.264,11.86H363.289a7.689,7.689,0,1,1,0-15.378h42.264a7.689,7.689,0,1,1,0,15.378Z" transform="translate(-325.74 -407.066)"/><path class="i" d="M365.518,592.518a12.112,12.112,0,0,0,11.257,10.252l1.407.1.2,1.407a9.242,9.242,0,0,0,18.293.05l.2-1.407,1.407-.1a12.011,12.011,0,0,0,11.207-10.252H365.518Zm22.062,23.167a12.705,12.705,0,0,1-12.363-9.548A15.538,15.538,0,0,1,361.9,590.759V589h51.31v1.759a15.576,15.576,0,0,1-13.317,15.378A12.6,12.6,0,0,1,387.58,615.685Z" transform="translate(-328.874 -425.766)"/><path class="i" d="M330.17,399.974h48.721V382.89l.251-.4a282.364,282.364,0,0,1,18.916-27.625A54.1,54.1,0,0,0,409.9,320.947a55.219,55.219,0,0,0-110.437,0,54.157,54.157,0,0,0,11.791,33.919,245.122,245.122,0,0,1,18.615,27.125l.251.4v17.584Zm52.233,3.5H326.658V383.34a245,245,0,0,0-18.114-26.326A57.556,57.556,0,0,1,296,320.947a58.732,58.732,0,0,1,117.462,0,57.5,57.5,0,0,1-12.594,36.067,266.313,266.313,0,0,0-18.415,26.826v19.632Z" transform="translate(-296 -262.5)"/><rect class="i" width="4.02" height="62.416" transform="translate(35.919 77.674) rotate(-12.357)"/><rect class="i" width="63.723" height="3.518" transform="matrix(0.21, -0.978, 0.978, 0.21, 64.199, 139.171)"/><rect class="i" width="19.75" height="3.518" transform="translate(49.107 177.104)"/><path class="i" d="M392.625,440.937l-4.071-13.167-9.2,6.734-1.457-2.01,11.961-8.795,2.915,9.4Z" transform="translate(-336.815 -343.085)"/></g><g class="j" transform="translate(6.583 5.277)"><path class="k" d="M362.789,554.818a4.171,4.171,0,1,0,0,8.342h42.264a4.171,4.171,0,0,0,0-8.342Zm42.264,11.86H362.789a7.689,7.689,0,1,1,0-15.378h42.264a7.689,7.689,0,1,1,0,15.378Z" transform="translate(-325.24 -406.666)"/><path class="k" d="M365.018,592.168a12.112,12.112,0,0,0,11.257,10.252l1.407.1.2,1.407a9.242,9.242,0,0,0,18.293.05l.2-1.407,1.407-.1a12.011,12.011,0,0,0,11.207-10.252H365.018Zm22.062,23.117a12.705,12.705,0,0,1-12.363-9.548A15.538,15.538,0,0,1,361.4,590.359V588.6h51.36v1.759a15.576,15.576,0,0,1-13.317,15.378A12.705,12.705,0,0,1,387.08,615.285Z" transform="translate(-328.374 -425.366)"/><path class="k" d="M329.67,399.574h48.721V382.49l.251-.4a282.367,282.367,0,0,1,18.916-27.625A54.1,54.1,0,0,0,409.4,320.547a55.219,55.219,0,0,0-110.437,0,54.157,54.157,0,0,0,11.791,33.919,245.123,245.123,0,0,1,18.615,27.125l.251.4v17.584Zm52.233,3.5H326.158V382.94a245,245,0,0,0-18.114-26.326A57.556,57.556,0,0,1,295.5,320.547a58.732,58.732,0,0,1,117.462,0,57.5,57.5,0,0,1-12.594,36.067,266.325,266.325,0,0,0-18.415,26.826v19.632Z" transform="translate(-295.5 -262.1)"/><rect class="k" width="4.02" height="62.416" transform="translate(35.967 77.665) rotate(-12.357)"/><rect class="k" width="63.723" height="3.518" transform="matrix(0.21, -0.978, 0.978, 0.21, 64.2, 139.184)"/><rect class="k" width="19.75" height="3.518" transform="translate(49.107 177.104)"/><path class="k" d="M392.225,440.337l-4.272-13.066-9.046,6.885-1.508-2.01,11.81-8.945,3.066,9.3Z" transform="translate(-336.315 -342.635)"/></g><g class="l" transform="translate(6.332 5.076)"><path class="m" d="M362.389,554.418a4.171,4.171,0,1,0,0,8.342H404.6a4.171,4.171,0,1,0,0-8.342Zm42.214,11.86H362.389a7.689,7.689,0,1,1,0-15.378H404.6a7.689,7.689,0,1,1,0,15.378Z" transform="translate(-324.79 -406.266)"/><path class="m" d="M364.518,591.768a12.112,12.112,0,0,0,11.257,10.252l1.407.1.2,1.407a9.242,9.242,0,0,0,18.293.05l.2-1.407,1.407-.1a12.011,12.011,0,0,0,11.207-10.252H364.518Zm22.062,23.117a12.705,12.705,0,0,1-12.363-9.548A15.538,15.538,0,0,1,360.9,589.959V588.2h51.36v1.759a15.576,15.576,0,0,1-13.317,15.378A12.662,12.662,0,0,1,386.58,614.885Z" transform="translate(-327.874 -424.966)"/><path class="m" d="M329.17,399.174h48.721V382.09l.251-.4a282.37,282.37,0,0,1,18.916-27.625A54.1,54.1,0,0,0,408.9,320.147a55.219,55.219,0,0,0-110.437,0,54.157,54.157,0,0,0,11.791,33.919,245.13,245.13,0,0,1,18.615,27.125l.251.4v17.584Zm52.233,3.5H325.658V382.54a245.01,245.01,0,0,0-18.114-26.326A57.556,57.556,0,0,1,295,320.147a58.732,58.732,0,0,1,117.462,0,57.5,57.5,0,0,1-12.594,36.067,266.318,266.318,0,0,0-18.415,26.826v19.632Z" transform="translate(-295 -261.7)"/><rect class="m" width="4.02" height="62.416" transform="translate(35.965 77.667) rotate(-12.357)"/><rect class="m" width="63.723" height="3.518" transform="matrix(0.21, -0.978, 0.978, 0.21, 64.2, 139.197)"/><rect class="m" width="19.75" height="3.518" transform="translate(49.107 177.104)"/><path class="m" d="M391.826,439.736l-4.473-12.966-8.9,6.985-1.558-1.91,11.659-9.146,3.166,9.247Z" transform="translate(-335.815 -342.185)"/></g><g class="n" transform="translate(6.081 4.875)"><path class="o" d="M361.839,554.018a4.171,4.171,0,1,0,0,8.342H404.1a4.171,4.171,0,1,0,0-8.342Zm42.214,11.86H361.789a7.689,7.689,0,1,1,0-15.378h42.264a7.689,7.689,0,1,1,0,15.378Z" transform="translate(-324.24 -405.866)"/><path class="o" d="M364.069,591.418a12.112,12.112,0,0,0,11.257,10.252l1.407.1.2,1.407a9.242,9.242,0,0,0,18.293.05l.2-1.407,1.407-.1a12.011,12.011,0,0,0,11.207-10.252H364.069Zm22.011,23.167a12.705,12.705,0,0,1-12.363-9.548A15.538,15.538,0,0,1,360.4,589.659V587.9h51.36v1.759a15.576,15.576,0,0,1-13.317,15.378A12.718,12.718,0,0,1,386.08,614.585Z" transform="translate(-327.374 -424.616)"/><path class="o" d="M328.67,398.774h48.721V381.69l.251-.4a282.364,282.364,0,0,1,18.916-27.625A54.1,54.1,0,0,0,408.4,319.747a55.219,55.219,0,0,0-110.437,0,54.157,54.157,0,0,0,11.791,33.919,245.118,245.118,0,0,1,18.615,27.125l.251.4v17.584Zm52.283,3.5h-55.8V382.14a245.005,245.005,0,0,0-18.114-26.326A57.556,57.556,0,0,1,294.5,319.747a58.732,58.732,0,0,1,117.462,0,57.5,57.5,0,0,1-12.594,36.067,266.322,266.322,0,0,0-18.415,26.826Z" transform="translate(-294.5 -261.3)"/><rect class="o" width="4.02" height="62.416" transform="translate(35.964 77.669) rotate(-12.357)"/><rect class="o" width="63.723" height="3.518" transform="matrix(0.21, -0.978, 0.978, 0.21, 64.2, 139.211)"/><rect class="o" width="19.75" height="3.518" transform="translate(49.157 177.104)"/><path class="o" d="M391.376,439.086l-4.623-12.865-8.795,7.136-1.558-1.91,11.458-9.347,3.367,9.2Z" transform="translate(-335.315 -341.684)"/></g><g class="p" transform="translate(5.83 4.674)"><path class="q" d="M361.389,553.618a4.171,4.171,0,1,0,0,8.342H403.6a4.171,4.171,0,1,0,0-8.342Zm42.214,11.86H361.389a7.689,7.689,0,0,1,0-15.378H403.6a7.689,7.689,0,0,1,0,15.378Z" transform="translate(-323.79 -405.465)"/><path class="q" d="M363.569,591.018a12.112,12.112,0,0,0,11.257,10.252l1.407.1.2,1.407a9.242,9.242,0,0,0,18.293.05l.2-1.407,1.407-.1a12.011,12.011,0,0,0,11.207-10.252H363.569Zm22.012,23.167a12.705,12.705,0,0,1-12.363-9.548A15.538,15.538,0,0,1,359.9,589.259V587.5h51.36v1.759a15.576,15.576,0,0,1-13.317,15.378A12.717,12.717,0,0,1,385.58,614.185Z" transform="translate(-326.874 -424.216)"/><path class="q" d="M328.17,398.374h48.721V381.29l.251-.4a282.377,282.377,0,0,1,18.916-27.625A54.1,54.1,0,0,0,407.9,319.347a55.219,55.219,0,0,0-110.437,0,54.157,54.157,0,0,0,11.791,33.919,245.128,245.128,0,0,1,18.615,27.125l.251.4v17.584Zm52.283,3.5h-55.8V381.74a245,245,0,0,0-18.114-26.326A57.556,57.556,0,0,1,294,319.347a58.732,58.732,0,0,1,117.462,0,57.5,57.5,0,0,1-12.594,36.067,266.328,266.328,0,0,0-18.415,26.826v19.632Z" transform="translate(-294 -260.9)"/><rect class="q" width="4.02" height="62.416" transform="translate(35.963 77.671) rotate(-12.357)"/><rect class="q" width="63.723" height="3.518" transform="matrix(0.21, -0.978, 0.978, 0.21, 64.259, 139.185)"/><rect class="q" width="19.75" height="3.518" transform="translate(49.157 177.104)"/><path class="q" d="M391.026,438.486,386.2,425.721l-8.644,7.237L376,431.1l11.257-9.5,3.468,9.146Z" transform="translate(-334.865 -341.234)"/></g><g class="r" transform="translate(5.629 4.473)"><path class="s" d="M360.889,553.268a4.171,4.171,0,1,0,0,8.342h42.264a4.171,4.171,0,1,0,0-8.342Zm42.264,11.81H360.889a7.689,7.689,0,1,1,0-15.378h42.264a7.689,7.689,0,1,1,0,15.378Z" transform="translate(-323.34 -405.066)"/><path class="s" d="M363.118,590.618a12.112,12.112,0,0,0,11.257,10.252l1.407.1.2,1.407a9.242,9.242,0,0,0,18.293.05l.2-1.407,1.407-.1a12.011,12.011,0,0,0,11.207-10.252H363.118Zm22.062,23.167a12.705,12.705,0,0,1-12.363-9.548A15.538,15.538,0,0,1,359.5,588.859V587.1h51.36v1.759a15.576,15.576,0,0,1-13.317,15.378A12.8,12.8,0,0,1,385.18,613.785Z" transform="translate(-326.474 -423.816)"/><path class="s" d="M327.77,397.974h48.721V380.89l.251-.4a282.366,282.366,0,0,1,18.916-27.625A54.1,54.1,0,0,0,407.5,318.947a55.219,55.219,0,0,0-110.437,0,54.157,54.157,0,0,0,11.791,33.919,245.121,245.121,0,0,1,18.615,27.125l.251.4v17.584Zm52.233,3.5H324.258V381.34a245.017,245.017,0,0,0-18.113-26.326A57.555,57.555,0,0,1,293.6,318.947a58.732,58.732,0,0,1,117.462,0,57.5,57.5,0,0,1-12.594,36.067,266.318,266.318,0,0,0-18.415,26.826v19.632Z" transform="translate(-293.6 -260.5)"/><rect class="s" width="4.02" height="62.416" transform="translate(35.922 77.722) rotate(-12.357)"/><rect class="s" width="63.723" height="3.518" transform="matrix(0.21, -0.978, 0.978, 0.21, 64.209, 139.198)"/><rect class="s" width="19.75" height="3.518" transform="translate(49.107 177.104)"/><path class="s" d="M390.627,437.885,385.6,425.221l-8.493,7.387-1.608-1.859,11.106-9.649,3.568,9.046Z" transform="translate(-334.415 -340.784)"/></g><g class="t" transform="translate(5.377 4.322)"><path class="u" d="M360.389,552.868a4.171,4.171,0,1,0,0,8.342h42.264a4.171,4.171,0,1,0,0-8.342Zm42.264,11.81H360.389a7.689,7.689,0,1,1,0-15.378h42.264a7.689,7.689,0,1,1,0,15.378Z" transform="translate(-322.84 -404.716)"/><path class="u" d="M362.618,590.218a12.112,12.112,0,0,0,11.257,10.252l1.407.1.2,1.407a9.242,9.242,0,0,0,18.293.05l.2-1.407,1.407-.1a12.011,12.011,0,0,0,11.207-10.252H362.618Zm22.062,23.167a12.705,12.705,0,0,1-12.363-9.548A15.538,15.538,0,0,1,359,588.459V586.7h51.36v1.759a15.576,15.576,0,0,1-13.317,15.378A12.705,12.705,0,0,1,384.68,613.385Z" transform="translate(-325.974 -423.466)"/><path class="u" d="M327.27,397.674h48.721V380.59l.251-.4a282.37,282.37,0,0,1,18.916-27.625A54.1,54.1,0,0,0,407,318.647a55.219,55.219,0,0,0-110.437,0,54.157,54.157,0,0,0,11.791,33.919,245.126,245.126,0,0,1,18.615,27.125l.251.4v17.584Zm52.233,3.5H323.757V381.04a245.005,245.005,0,0,0-18.113-26.326A57.556,57.556,0,0,1,293.1,318.647a58.732,58.732,0,0,1,117.462,0,57.5,57.5,0,0,1-12.594,36.067,266.327,266.327,0,0,0-18.415,26.826v19.632Z" transform="translate(-293.1 -260.2)"/><rect class="u" width="4.02" height="62.416" transform="translate(35.921 77.673) rotate(-12.357)"/><rect class="u" width="63.723" height="3.518" transform="matrix(0.21, -0.978, 0.978, 0.21, 64.209, 139.161)"/><rect class="u" width="19.75" height="3.518" transform="translate(49.107 177.054)"/><path class="u" d="M390.227,437.285,385,424.721l-8.393,7.488L375,430.4l10.956-9.8,3.719,9Z" transform="translate(-333.915 -340.384)"/></g><g class="v" transform="translate(5.126 4.121)"><path class="w" d="M359.889,552.518a4.171,4.171,0,1,0,0,8.342h42.264a4.171,4.171,0,1,0,0-8.342Zm42.264,11.86H359.889a7.689,7.689,0,1,1,0-15.378h42.264a7.689,7.689,0,1,1,0,15.378Z" transform="translate(-322.34 -404.366)"/><path class="w" d="M362.118,589.818a12.112,12.112,0,0,0,11.257,10.252l1.407.1.2,1.407a9.242,9.242,0,0,0,18.293.05l.2-1.407,1.407-.1a12.011,12.011,0,0,0,11.207-10.252H362.118Zm22.062,23.167a12.705,12.705,0,0,1-12.363-9.548A15.538,15.538,0,0,1,358.5,588.059V586.3h51.36v1.759a15.576,15.576,0,0,1-13.317,15.378A12.705,12.705,0,0,1,384.18,612.985Z" transform="translate(-325.474 -423.066)"/><path class="w" d="M326.77,397.274h48.721V380.19l.251-.4a282.371,282.371,0,0,1,18.916-27.625A54.1,54.1,0,0,0,406.5,318.247a55.219,55.219,0,0,0-110.437,0,54.157,54.157,0,0,0,11.791,33.919,245.122,245.122,0,0,1,18.615,27.125l.251.4v17.584Zm52.233,3.5H323.257V380.64a245.006,245.006,0,0,0-18.113-26.326A57.555,57.555,0,0,1,292.6,318.247a58.732,58.732,0,0,1,117.462,0,57.5,57.5,0,0,1-12.594,36.067,266.315,266.315,0,0,0-18.415,26.826v19.632Z" transform="translate(-292.6 -259.8)"/><rect class="w" width="4.02" height="62.416" transform="translate(35.92 77.675) rotate(-12.357)"/><rect class="w" width="63.723" height="3.518" transform="matrix(0.21, -0.978, 0.978, 0.21, 64.209, 139.174)"/><rect class="w" width="19.75" height="3.518" transform="translate(49.107 177.054)"/><path class="w" d="M389.828,436.684,384.4,424.221l-8.242,7.639L374.5,430.05l10.754-9.95,3.87,8.9Z" transform="translate(-333.416 -339.934)"/></g><g class="x" transform="translate(4.875 3.92)"><path class="y" d="M359.389,552.118a4.171,4.171,0,1,0,0,8.342h42.264a4.171,4.171,0,1,0,0-8.342Zm42.264,11.86H359.389a7.689,7.689,0,1,1,0-15.378h42.264a7.689,7.689,0,0,1,0,15.378Z" transform="translate(-321.84 -403.966)"/><path class="y" d="M361.618,589.418a12.112,12.112,0,0,0,11.257,10.252l1.407.1.2,1.407a9.242,9.242,0,0,0,18.293.05l.2-1.407,1.407-.1a12.011,12.011,0,0,0,11.207-10.252H361.618Zm22.062,23.167a12.705,12.705,0,0,1-12.363-9.548A15.538,15.538,0,0,1,358,587.659V585.9h51.36v1.759a15.576,15.576,0,0,1-13.317,15.378A12.705,12.705,0,0,1,383.68,612.585Z" transform="translate(-324.974 -422.666)"/><path class="y" d="M326.27,396.874h48.721V379.79l.251-.4a282.38,282.38,0,0,1,18.916-27.625A54.1,54.1,0,0,0,406,317.847a55.219,55.219,0,0,0-110.437,0,54.157,54.157,0,0,0,11.791,33.919,245.117,245.117,0,0,1,18.615,27.125l.251.4v17.584Zm52.233,3.5H322.757V380.24a245.008,245.008,0,0,0-18.113-26.326A57.556,57.556,0,0,1,292.1,317.847a58.732,58.732,0,0,1,117.462,0,57.5,57.5,0,0,1-12.594,36.067,266.317,266.317,0,0,0-18.415,26.826v19.632Z" transform="translate(-292.1 -259.4)"/><rect class="y" width="4.02" height="62.416" transform="translate(35.968 77.667) rotate(-12.357)"/><rect class="y" width="63.723" height="3.518" transform="matrix(0.21, -0.978, 0.978, 0.21, 64.209, 139.187)"/><rect class="y" width="19.75" height="3.518" transform="translate(49.107 177.104)"/><path class="y" d="M389.428,436.083,383.8,423.771l-8.091,7.689L374,429.7l10.6-10.1,4.02,8.845Z" transform="translate(-332.916 -339.484)"/></g><g class="z" transform="translate(4.623 3.719)"><path class="aa" d="M358.939,551.718a4.171,4.171,0,0,0,0,8.342H401.2a4.171,4.171,0,0,0,0-8.342Zm42.214,11.86H358.889a7.689,7.689,0,0,1,0-15.378h42.264a7.689,7.689,0,0,1,0,15.378Z" transform="translate(-321.34 -403.566)"/><path class="aa" d="M361.118,589.068a12.112,12.112,0,0,0,11.257,10.252l1.407.1.2,1.407a9.242,9.242,0,0,0,18.293.05l.2-1.407,1.407-.1a12.011,12.011,0,0,0,11.207-10.252H361.118Zm22.062,23.117a12.705,12.705,0,0,1-12.363-9.548A15.538,15.538,0,0,1,357.5,587.259V585.5h51.36v1.759a15.576,15.576,0,0,1-13.317,15.378A12.662,12.662,0,0,1,383.18,612.185Z" transform="translate(-324.474 -422.266)"/><path class="aa" d="M325.77,396.474h48.721V379.39l.251-.4a282.367,282.367,0,0,1,18.916-27.625A54.1,54.1,0,0,0,405.5,317.447a55.219,55.219,0,0,0-110.437,0,54.157,54.157,0,0,0,11.791,33.919,245.124,245.124,0,0,1,18.615,27.125l.251.4v17.584Zm52.233,3.5H322.258V379.84a245.008,245.008,0,0,0-18.113-26.326A57.555,57.555,0,0,1,291.6,317.447a58.732,58.732,0,0,1,117.462,0,57.5,57.5,0,0,1-12.594,36.067,266.324,266.324,0,0,0-18.415,26.826v19.632Z" transform="translate(-291.6 -259)"/><rect class="aa" width="4.02" height="62.416" transform="translate(35.967 77.668) rotate(-12.357)"/><rect class="aa" width="63.723" height="3.518" transform="matrix(0.21, -0.978, 0.978, 0.21, 64.209, 139.2)"/><rect class="aa" width="19.75" height="3.518" transform="translate(49.107 177.104)"/><path class="aa" d="M388.978,435.483,383.2,423.271l-7.99,7.84-1.709-1.759L383.953,419.1l4.121,8.744Z" transform="translate(-332.416 -339.033)"/></g><g class="ab" transform="translate(4.372 3.518)"><path class="ac" d="M358.439,551.318a4.171,4.171,0,1,0,0,8.342H400.7a4.171,4.171,0,1,0,0-8.342Zm42.214,11.86H358.389a7.689,7.689,0,0,1,0-15.378h42.264a7.689,7.689,0,1,1,0,15.378Z" transform="translate(-320.84 -403.166)"/><path class="ac" d="M360.669,588.668a12.112,12.112,0,0,0,11.257,10.252l1.407.1.2,1.407a9.242,9.242,0,0,0,18.293.05l.2-1.407,1.407-.1a12.011,12.011,0,0,0,11.207-10.252H360.669Zm22.011,23.117a12.705,12.705,0,0,1-12.363-9.548A15.538,15.538,0,0,1,357,586.859V585.1h51.36v1.759a15.576,15.576,0,0,1-13.317,15.378A12.662,12.662,0,0,1,382.68,611.785Z" transform="translate(-323.974 -421.866)"/><path class="ac" d="M325.27,396.074h48.721V378.99l.251-.4a282.372,282.372,0,0,1,18.916-27.625A54.1,54.1,0,0,0,405,317.047a55.219,55.219,0,0,0-110.437,0,54.157,54.157,0,0,0,11.791,33.919,245.127,245.127,0,0,1,18.615,27.125l.251.4v17.584Zm52.283,3.5h-55.8V379.44a245.008,245.008,0,0,0-18.113-26.326A57.555,57.555,0,0,1,291.1,317.047a58.732,58.732,0,0,1,117.462,0,57.5,57.5,0,0,1-12.594,36.067,266.315,266.315,0,0,0-18.415,26.826Z" transform="translate(-291.1 -258.6)"/><rect class="ac" width="4.02" height="62.416" transform="translate(35.966 77.67) rotate(-12.357)"/><rect class="ac" width="63.723" height="3.518" transform="matrix(0.21, -0.978, 0.978, 0.21, 64.22, 139.164)"/><rect class="ac" width="19.75" height="3.518" transform="translate(49.157 177.104)"/><path class="ac" d="M388.579,434.883l-5.98-12.111-7.84,7.94L373,429l10.3-10.4,4.272,8.694Z" transform="translate(-331.916 -338.583)"/></g><g class="ad" transform="translate(4.171 3.317)"><path class="ae" d="M357.939,550.918a4.171,4.171,0,1,0,0,8.342H400.2a4.171,4.171,0,1,0,0-8.342Zm42.214,11.86H357.889a7.689,7.689,0,1,1,0-15.378h42.264a7.689,7.689,0,1,1,0,15.378Z" transform="translate(-320.39 -402.766)"/><path class="ae" d="M360.218,588.318a12.112,12.112,0,0,0,11.257,10.252l1.407.1.2,1.407a9.242,9.242,0,0,0,18.293.05l.2-1.407,1.407-.1a12.011,12.011,0,0,0,11.207-10.252H360.218Zm22.062,23.167a12.705,12.705,0,0,1-12.363-9.548A15.538,15.538,0,0,1,356.6,586.559V584.8h51.36v1.759a15.576,15.576,0,0,1-13.317,15.378A12.805,12.805,0,0,1,382.28,611.485Z" transform="translate(-323.574 -421.516)"/><path class="ae" d="M324.87,395.674h48.721V378.59l.251-.4a282.364,282.364,0,0,1,18.916-27.625A54.1,54.1,0,0,0,404.6,316.647a55.219,55.219,0,0,0-110.437,0,54.157,54.157,0,0,0,11.791,33.919,245.12,245.12,0,0,1,18.615,27.125l.251.4v17.584Zm52.233,3.5H321.357V379.04a245,245,0,0,0-18.114-26.326A57.556,57.556,0,0,1,290.7,316.647a58.732,58.732,0,0,1,117.462,0,57.5,57.5,0,0,1-12.594,36.067,266.32,266.32,0,0,0-18.415,26.826v19.632Z" transform="translate(-290.7 -258.2)"/><rect class="ae" width="4.02" height="62.416" transform="translate(35.914 77.672) rotate(-12.357)"/><rect class="ae" width="63.723" height="3.518" transform="matrix(0.21, -0.978, 0.978, 0.21, 64.17, 139.177)"/><rect class="ae" width="19.75" height="3.518" transform="translate(49.107 177.104)"/><path class="ae" d="M388.229,434.332l-6.181-12.061-7.689,8.091-1.759-1.709L382.651,418.1l4.422,8.594Z" transform="translate(-331.516 -338.133)"/></g><g class="af" transform="translate(3.92 3.116)"><path class="ag" d="M357.489,550.518a4.171,4.171,0,1,0,0,8.342h42.264a4.171,4.171,0,1,0,0-8.342Zm42.264,11.86H357.489a7.689,7.689,0,1,1,0-15.378h42.264a7.689,7.689,0,1,1,0,15.378Z" transform="translate(-319.94 -402.366)"/><path class="ag" d="M359.718,587.918a12.112,12.112,0,0,0,11.257,10.252l1.407.1.2,1.407a9.242,9.242,0,0,0,18.293.05l.2-1.407,1.407-.1a12.011,12.011,0,0,0,11.207-10.252H359.718Zm22.062,23.167a12.705,12.705,0,0,1-12.363-9.548A15.538,15.538,0,0,1,356.1,586.159V584.4h51.36v1.759a15.576,15.576,0,0,1-13.317,15.378A12.761,12.761,0,0,1,381.78,611.085Z" transform="translate(-323.074 -421.116)"/><path class="ag" d="M324.37,395.274h48.721V378.19l.251-.4a282.373,282.373,0,0,1,18.916-27.625A54.1,54.1,0,0,0,404.1,316.247a55.219,55.219,0,0,0-110.437,0,54.157,54.157,0,0,0,11.791,33.919,245.131,245.131,0,0,1,18.615,27.125l.251.4v17.584Zm52.233,3.5H320.857V378.64a245.01,245.01,0,0,0-18.114-26.326A57.556,57.556,0,0,1,290.2,316.247a58.732,58.732,0,0,1,117.462,0,57.5,57.5,0,0,1-12.594,36.067,266.313,266.313,0,0,0-18.415,26.826v19.632Z" transform="translate(-290.2 -257.8)"/><rect class="ag" width="4.02" height="62.416" transform="translate(35.924 77.723) rotate(-12.357)"/><rect class="ag" width="63.723" height="3.518" transform="matrix(0.21, -0.978, 0.978, 0.21, 64.219, 139.201)"/><rect class="ag" width="19.75" height="3.518" transform="translate(49.107 177.104)"/><path class="ag" d="M387.83,433.732l-6.382-11.961-7.588,8.191L372.1,428.3l9.9-10.7,4.523,8.543Z" transform="translate(-331.016 -337.683)"/></g><g class="ah" transform="translate(3.669 2.915)"><path class="ai" d="M356.989,550.168a4.171,4.171,0,0,0,0,8.342h42.264a4.171,4.171,0,1,0,0-8.342Zm42.264,11.81H356.989a7.689,7.689,0,0,1,0-15.378h42.264a7.689,7.689,0,0,1,0,15.378Z" transform="translate(-319.44 -401.965)"/><path class="ai" d="M359.218,587.518a12.112,12.112,0,0,0,11.257,10.252l1.407.1.2,1.407a9.242,9.242,0,0,0,18.293.05l.2-1.407,1.407-.1a12.011,12.011,0,0,0,11.207-10.252H359.218Zm22.062,23.167a12.705,12.705,0,0,1-12.363-9.548A15.538,15.538,0,0,1,355.6,585.759V584h51.36v1.759a15.576,15.576,0,0,1-13.317,15.378A12.761,12.761,0,0,1,381.28,610.685Z" transform="translate(-322.574 -420.716)"/><path class="ai" d="M323.87,394.874h48.721V377.79l.251-.4a282.368,282.368,0,0,1,18.916-27.625A54.1,54.1,0,0,0,403.6,315.847a55.219,55.219,0,0,0-110.437,0,54.157,54.157,0,0,0,11.791,33.919,245.116,245.116,0,0,1,18.615,27.125l.251.4v17.584Zm52.233,3.5H320.357V378.24a245,245,0,0,0-18.113-26.326A57.556,57.556,0,0,1,289.7,315.847a58.732,58.732,0,0,1,117.462,0,57.5,57.5,0,0,1-12.594,36.067,266.32,266.32,0,0,0-18.415,26.826v19.632Z" transform="translate(-289.7 -257.4)"/><rect class="ai" width="4.02" height="62.416" transform="translate(35.923 77.725) rotate(-12.357)"/><rect class="ai" width="63.723" height="3.518" transform="matrix(0.21, -0.978, 0.978, 0.21, 64.219, 139.214)"/><rect class="ai" width="19.75" height="3.518" transform="translate(49.107 177.104)"/><path class="ai" d="M387.43,433.131l-6.583-11.86-7.438,8.342-1.809-1.658,9.749-10.855,4.674,8.443Z" transform="translate(-330.516 -337.232)"/></g><g class="aj" transform="translate(3.417 2.764)"><path class="ak" d="M356.489,549.768a4.171,4.171,0,1,0,0,8.342h42.264a4.171,4.171,0,1,0,0-8.342Zm42.264,11.81H356.489a7.689,7.689,0,0,1,0-15.378h42.264a7.689,7.689,0,0,1,0,15.378Z" transform="translate(-318.94 -401.616)"/><path class="ak" d="M358.718,587.118a12.112,12.112,0,0,0,11.257,10.252l1.407.1.2,1.407a9.242,9.242,0,0,0,18.293.05l.2-1.407,1.407-.1a12.011,12.011,0,0,0,11.207-10.252H358.718Zm22.062,23.167a12.705,12.705,0,0,1-12.363-9.548A15.538,15.538,0,0,1,355.1,585.359V583.6h51.36v1.759a15.576,15.576,0,0,1-13.317,15.378A12.705,12.705,0,0,1,380.78,610.285Z" transform="translate(-322.074 -420.366)"/><path class="ak" d="M323.37,394.574h48.721V377.49l.251-.4a282.373,282.373,0,0,1,18.916-27.625A54.1,54.1,0,0,0,403.1,315.547a55.219,55.219,0,0,0-110.437,0,54.157,54.157,0,0,0,11.791,33.919,245.12,245.12,0,0,1,18.615,27.125l.251.4v17.584Zm52.233,3.5H319.857V377.94a245,245,0,0,0-18.114-26.326A57.556,57.556,0,0,1,289.2,315.547a58.732,58.732,0,0,1,117.462,0,57.5,57.5,0,0,1-12.594,36.067,266.32,266.32,0,0,0-18.415,26.826v19.632Z" transform="translate(-289.2 -257.1)"/><rect class="ak" width="4.02" height="62.416" transform="translate(35.97 77.666) rotate(-12.357)"/><rect class="ak" width="63.723" height="3.518" transform="matrix(0.21, -0.978, 0.978, 0.21, 64.219, 139.176)"/><rect class="ak" width="19.75" height="3.518" transform="translate(49.107 177.054)"/><path class="ak" d="M387.031,432.531l-6.784-11.76-7.287,8.443-1.859-1.608,9.548-11.006,4.824,8.392Z" transform="translate(-330.016 -336.832)"/></g><g class="al" transform="translate(3.166 2.563)"><path class="am" d="M356.039,549.418a4.171,4.171,0,1,0,0,8.342H398.3a4.171,4.171,0,1,0,0-8.342Zm42.214,11.86H355.989a7.689,7.689,0,1,1,0-15.378h42.264a7.689,7.689,0,1,1,0,15.378Z" transform="translate(-318.44 -401.266)"/><path class="am" d="M358.218,586.718a12.112,12.112,0,0,0,11.257,10.252l1.407.1.2,1.407a9.242,9.242,0,0,0,18.293.05l.2-1.407,1.407-.1a12.011,12.011,0,0,0,11.207-10.252H358.218Zm22.062,23.167a12.7,12.7,0,0,1-12.363-9.548A15.538,15.538,0,0,1,354.6,584.959V583.2h51.36v1.759a15.576,15.576,0,0,1-13.317,15.378A12.662,12.662,0,0,1,380.28,609.885Z" transform="translate(-321.574 -419.966)"/><path class="am" d="M322.87,394.174h48.721V377.09l.251-.4a282.369,282.369,0,0,1,18.916-27.625A54.1,54.1,0,0,0,402.6,315.147a55.219,55.219,0,0,0-110.437,0,54.157,54.157,0,0,0,11.791,33.919,245.131,245.131,0,0,1,18.615,27.125l.251.4v17.584Zm52.233,3.5H319.357V377.54a245,245,0,0,0-18.113-26.326A57.556,57.556,0,0,1,288.7,315.147a58.732,58.732,0,0,1,117.462,0,57.5,57.5,0,0,1-12.594,36.067,266.315,266.315,0,0,0-18.415,26.826v19.632Z" transform="translate(-288.7 -256.7)"/><rect class="am" width="4.02" height="62.416" transform="translate(35.969 77.668) rotate(-12.357)"/><rect class="am" width="63.723" height="3.518" transform="matrix(0.21, -0.978, 0.978, 0.21, 64.219, 139.189)"/><rect class="am" width="19.75" height="3.518" transform="translate(49.107 177.104)"/><path class="am" d="M386.581,431.93l-6.935-11.659-7.186,8.594-1.859-1.608L380,416.1l4.975,8.292Z" transform="translate(-329.516 -336.382)"/></g><g class="an" transform="translate(2.915 2.362)"><path class="ao" d="M355.539,549.018a4.171,4.171,0,1,0,0,8.342H397.8a4.171,4.171,0,1,0,0-8.342Zm42.214,11.86H355.489a7.689,7.689,0,0,1,0-15.378h42.264a7.689,7.689,0,1,1,0,15.378Z" transform="translate(-317.94 -400.866)"/><path class="ao" d="M357.769,586.318a12.112,12.112,0,0,0,11.257,10.252l1.407.1.2,1.407a9.242,9.242,0,0,0,18.293.05l.2-1.407,1.407-.1a12.011,12.011,0,0,0,11.207-10.252H357.769Zm22.011,23.167a12.705,12.705,0,0,1-12.363-9.548A15.538,15.538,0,0,1,354.1,584.559V582.8h51.36v1.759a15.576,15.576,0,0,1-13.317,15.378A12.662,12.662,0,0,1,379.78,609.485Z" transform="translate(-321.074 -419.566)"/><path class="ao" d="M322.37,393.774h48.721V376.69l.251-.4a282.372,282.372,0,0,1,18.916-27.625A54.1,54.1,0,0,0,402.1,314.747a55.219,55.219,0,0,0-110.437,0,54.157,54.157,0,0,0,11.791,33.919,245.117,245.117,0,0,1,18.615,27.125l.251.4v17.584Zm52.283,3.5h-55.8V377.14a245,245,0,0,0-18.114-26.326A57.556,57.556,0,0,1,288.2,314.747a58.732,58.732,0,0,1,117.462,0,57.5,57.5,0,0,1-12.594,36.067,266.308,266.308,0,0,0-18.415,26.826v19.632Z" transform="translate(-288.2 -256.3)"/><rect class="ao" width="4.02" height="62.416" transform="translate(35.968 77.67) rotate(-12.357)"/><rect class="ao" width="63.723" height="3.518" transform="matrix(0.21, -0.978, 0.978, 0.21, 64.23, 139.154)"/><rect class="ao" width="19.75" height="3.518" transform="translate(49.157 177.104)"/><path class="ao" d="M386.181,431.33l-7.136-11.559-7.036,8.694-1.91-1.558,9.247-11.307,5.076,8.191Z" transform="translate(-329.016 -335.932)"/></g><g class="ap" transform="translate(2.663 2.161)"><path class="aq" d="M355.039,548.618a4.171,4.171,0,1,0,0,8.342H397.3a4.171,4.171,0,1,0,0-8.342Zm42.214,11.86H354.989a7.689,7.689,0,0,1,0-15.378h42.264a7.689,7.689,0,0,1,0,15.378Z" transform="translate(-317.44 -400.466)"/><path class="aq" d="M357.269,585.968a12.112,12.112,0,0,0,11.257,10.252l1.407.1.2,1.407a9.242,9.242,0,0,0,18.293.05l.2-1.407,1.407-.1a12.011,12.011,0,0,0,11.207-10.252H357.269Zm22.012,23.117a12.705,12.705,0,0,1-12.363-9.548A15.538,15.538,0,0,1,353.6,584.159V582.4h51.36v1.759a15.576,15.576,0,0,1-13.317,15.378A12.662,12.662,0,0,1,379.28,609.085Z" transform="translate(-320.574 -419.166)"/><path class="aq" d="M321.87,393.374h48.771V376.29l.251-.4a282.379,282.379,0,0,1,18.916-27.625,54.1,54.1,0,0,0,11.842-33.919,55.219,55.219,0,0,0-110.437,0A54.157,54.157,0,0,0,303,348.266a245.125,245.125,0,0,1,18.615,27.125l.251.4Zm52.283,3.5h-55.8V376.74a245,245,0,0,0-18.114-26.326A57.556,57.556,0,0,1,287.7,314.347a58.732,58.732,0,0,1,117.462,0,57.5,57.5,0,0,1-12.594,36.067,278.2,278.2,0,0,0-18.415,26.826Z" transform="translate(-287.7 -255.9)"/><rect class="aq" width="4.02" height="62.416" transform="translate(35.967 77.672) rotate(-12.357)"/><rect class="aq" width="63.723" height="3.518" transform="matrix(0.21, -0.978, 0.978, 0.21, 64.23, 139.166)"/><rect class="aq" width="19.75" height="3.518" transform="translate(49.157 177.104)"/><path class="aq" d="M385.782,430.729l-7.337-11.458-6.885,8.795-1.96-1.508,9.1-11.458,5.176,8.141Z" transform="translate(-328.516 -335.482)"/></g><g class="ar" transform="translate(2.462 1.96)"><path class="as" d="M354.589,548.218a4.171,4.171,0,1,0,0,8.342h42.264a4.171,4.171,0,1,0,0-8.342Zm42.264,11.86H354.589a7.689,7.689,0,1,1,0-15.378h42.264a7.689,7.689,0,0,1,0,15.378Z" transform="translate(-317.04 -400.066)"/><path class="as" d="M356.818,585.618a12.112,12.112,0,0,0,11.257,10.252l1.407.1.2,1.407a9.242,9.242,0,0,0,18.293.05l.2-1.407,1.407-.1a12.011,12.011,0,0,0,11.207-10.252H356.818Zm22.062,23.167a12.705,12.705,0,0,1-12.363-9.548A15.538,15.538,0,0,1,353.2,583.859V582.1h51.36v1.759a15.576,15.576,0,0,1-13.317,15.378A12.761,12.761,0,0,1,378.88,608.785Z" transform="translate(-320.174 -418.816)"/><path class="as" d="M321.47,392.974h48.721V375.89l.251-.4a282.369,282.369,0,0,1,18.916-27.625A54.1,54.1,0,0,0,401.2,313.947a55.219,55.219,0,0,0-110.437,0,54.157,54.157,0,0,0,11.791,33.919,245.122,245.122,0,0,1,18.615,27.125l.251.4v17.584Zm52.233,3.5H317.957V376.34a245.005,245.005,0,0,0-18.114-26.326A57.556,57.556,0,0,1,287.3,313.947a58.732,58.732,0,0,1,117.462,0,57.5,57.5,0,0,1-12.594,36.067,266.321,266.321,0,0,0-18.414,26.826v19.632Z" transform="translate(-287.3 -255.5)"/><rect class="as" width="4.02" height="62.416" transform="translate(35.915 77.674) rotate(-12.357)"/><rect class="as" width="63.723" height="3.518" transform="matrix(0.21, -0.978, 0.978, 0.21, 64.18, 139.18)"/><rect class="as" width="19.75" height="3.518" transform="translate(49.107 177.104)"/><path class="as" d="M385.432,430.129l-7.488-11.307-6.835,8.9-1.91-1.508,8.845-11.609,5.377,8.041Z" transform="translate(-328.116 -335.031)"/></g><g class="at" transform="translate(2.211 1.759)"><path class="au" d="M354.089,547.818a4.171,4.171,0,0,0,0,8.342h42.264a4.171,4.171,0,1,0,0-8.342Zm42.264,11.86H354.089a7.689,7.689,0,1,1,0-15.378h42.264a7.689,7.689,0,1,1,0,15.378Z" transform="translate(-316.54 -399.666)"/><path class="au" d="M356.318,585.218a12.112,12.112,0,0,0,11.257,10.252l1.407.1.2,1.407a9.242,9.242,0,0,0,18.293.05l.2-1.407,1.407-.1a12.011,12.011,0,0,0,11.207-10.252H356.318Zm22.062,23.167a12.705,12.705,0,0,1-12.363-9.548A15.538,15.538,0,0,1,352.7,583.459V581.7h51.36v1.759a15.576,15.576,0,0,1-13.317,15.378A12.761,12.761,0,0,1,378.38,608.385Z" transform="translate(-319.674 -418.416)"/><path class="au" d="M320.97,392.574h48.721V375.49l.251-.4a282.366,282.366,0,0,1,18.916-27.625A54.1,54.1,0,0,0,400.7,313.547a55.219,55.219,0,0,0-110.437,0,54.157,54.157,0,0,0,11.791,33.919,245.125,245.125,0,0,1,18.615,27.125l.251.4v17.584Zm52.233,3.5H317.457V375.94a245,245,0,0,0-18.114-26.326A57.556,57.556,0,0,1,286.8,313.547a58.732,58.732,0,0,1,117.462,0,57.5,57.5,0,0,1-12.594,36.067,266.324,266.324,0,0,0-18.415,26.826v19.632Z" transform="translate(-286.8 -255.1)"/><rect class="au" width="4.02" height="62.416" transform="translate(35.914 77.676) rotate(-12.357)"/><rect class="au" width="63.723" height="3.518" transform="matrix(0.21, -0.978, 0.978, 0.21, 64.229, 139.203)"/><rect class="au" width="19.75" height="3.518" transform="translate(49.107 177.104)"/><path class="au" d="M385.033,429.478l-7.689-11.207-6.684,9-1.96-1.457L377.394,414l5.478,8.041Z" transform="translate(-327.616 -334.531)"/></g><g class="av" transform="translate(1.96 1.558)"><path class="aw" d="M353.589,547.418a4.171,4.171,0,0,0,0,8.342h42.264a4.171,4.171,0,1,0,0-8.342Zm42.264,11.86H353.589a7.689,7.689,0,1,1,0-15.378h42.264a7.689,7.689,0,1,1,0,15.378Z" transform="translate(-316.04 -399.266)"/><path class="aw" d="M355.818,584.818a12.112,12.112,0,0,0,11.257,10.252l1.407.1.2,1.407a9.242,9.242,0,0,0,18.293.05l.2-1.407,1.407-.1a12.011,12.011,0,0,0,11.207-10.252H355.818Zm22.062,23.167a12.705,12.705,0,0,1-12.363-9.548A15.538,15.538,0,0,1,352.2,583.059V581.3h51.36v1.759a15.576,15.576,0,0,1-13.317,15.378A12.761,12.761,0,0,1,377.88,607.985Z" transform="translate(-319.174 -418.016)"/><path class="aw" d="M320.47,392.174h48.721V375.09l.251-.4a282.375,282.375,0,0,1,18.916-27.625A54.1,54.1,0,0,0,400.2,313.147a55.219,55.219,0,0,0-110.437,0,54.157,54.157,0,0,0,11.791,33.919,245.132,245.132,0,0,1,18.615,27.125l.251.4v17.584Zm52.233,3.5H316.957V375.54a245.012,245.012,0,0,0-18.114-26.326A57.556,57.556,0,0,1,286.3,313.147a58.732,58.732,0,0,1,117.462,0,57.5,57.5,0,0,1-12.594,36.067,266.323,266.323,0,0,0-18.415,26.826v19.632Z" transform="translate(-286.3 -254.7)"/><rect class="aw" width="4.02" height="62.416" transform="translate(35.973 77.716) rotate(-12.357)"/><rect class="aw" width="63.723" height="3.518" transform="matrix(0.21, -0.978, 0.978, 0.21, 64.229, 139.216)"/><rect class="aw" width="19.75" height="3.518" transform="translate(49.107 177.104)"/><path class="aw" d="M384.583,428.878l-7.84-11.106-6.533,9.146-2.01-1.407,8.543-12.011,5.628,7.94Z" transform="translate(-327.116 -334.081)"/></g><g class="ax" transform="translate(1.709 1.357)"><path class="ay" d="M353.139,547.068a4.171,4.171,0,0,0,0,8.342H395.4a4.171,4.171,0,1,0,0-8.342Zm42.214,11.81H353.089a7.689,7.689,0,1,1,0-15.378h42.264a7.689,7.689,0,1,1,0,15.378Z" transform="translate(-315.54 -398.866)"/><path class="ay" d="M355.318,584.418a12.112,12.112,0,0,0,11.257,10.252l1.407.1.2,1.407a9.242,9.242,0,0,0,18.293.05l.2-1.407,1.407-.1a12.011,12.011,0,0,0,11.207-10.252H355.318Zm22.062,23.167a12.705,12.705,0,0,1-12.363-9.548A15.538,15.538,0,0,1,351.7,582.659V580.9h51.36v1.759a15.576,15.576,0,0,1-13.317,15.378A12.718,12.718,0,0,1,377.38,607.585Z" transform="translate(-318.674 -417.616)"/><path class="ay" d="M319.97,391.774h48.721V374.69l.251-.4a282.361,282.361,0,0,1,18.916-27.625A54.1,54.1,0,0,0,399.7,312.747a55.219,55.219,0,0,0-110.437,0,54.157,54.157,0,0,0,11.791,33.919,245.132,245.132,0,0,1,18.615,27.125l.251.4v17.584Zm52.233,3.5H316.457V375.14a245.015,245.015,0,0,0-18.113-26.326A57.555,57.555,0,0,1,285.8,312.747a58.732,58.732,0,0,1,117.462,0,57.5,57.5,0,0,1-12.594,36.067,266.307,266.307,0,0,0-18.415,26.826v19.632Z" transform="translate(-285.8 -254.3)"/><rect class="ay" width="4.02" height="62.416" transform="translate(35.972 77.718) rotate(-12.357)"/><rect class="ay" width="63.723" height="3.518" transform="matrix(0.21, -0.978, 0.978, 0.21, 64.229, 139.229)"/><rect class="ay" width="19.75" height="3.518" transform="translate(49.107 177.104)"/><path class="ay" d="M384.184,428.277l-8.041-11.006-6.433,9.247-2.01-1.357L376.042,413l5.779,7.89Z" transform="translate(-326.616 -333.631)"/></g><g class="az" transform="translate(1.457 1.206)"><path class="ba" d="M352.639,546.668a4.171,4.171,0,1,0,0,8.342H394.9a4.171,4.171,0,1,0,0-8.342Zm42.214,11.81H352.589a7.689,7.689,0,0,1,0-15.378h42.264a7.689,7.689,0,0,1,0,15.378Z" transform="translate(-315.04 -398.516)"/><path class="ba" d="M354.869,584.018a12.112,12.112,0,0,0,11.257,10.252l1.407.1.2,1.407a9.242,9.242,0,0,0,18.293.05l.2-1.407,1.407-.1a12.011,12.011,0,0,0,11.207-10.252H354.869Zm22.012,23.167a12.705,12.705,0,0,1-12.363-9.548A15.538,15.538,0,0,1,351.2,582.259V580.5h51.36v1.759a15.576,15.576,0,0,1-13.317,15.378A12.662,12.662,0,0,1,376.88,607.185Z" transform="translate(-318.174 -417.266)"/><path class="ba" d="M319.47,391.474h48.721V374.39l.251-.4a282.377,282.377,0,0,1,18.916-27.625A54.1,54.1,0,0,0,399.2,312.447a55.219,55.219,0,0,0-110.437,0,54.157,54.157,0,0,0,11.791,33.919,245.132,245.132,0,0,1,18.615,27.125l.251.4v17.584Zm52.283,3.5h-55.8V374.84a245.008,245.008,0,0,0-18.114-26.326A57.556,57.556,0,0,1,285.3,312.447a58.732,58.732,0,0,1,117.462,0,57.5,57.5,0,0,1-12.594,36.067,266.323,266.323,0,0,0-18.415,26.826Z" transform="translate(-285.3 -254)"/><rect class="ba" width="4.02" height="62.416" transform="translate(35.97 77.669) rotate(-12.357)"/><rect class="ba" width="63.723" height="3.518" transform="matrix(0.21, -0.978, 0.978, 0.21, 64.239, 139.143)"/><rect class="ba" width="19.75" height="3.518" transform="translate(49.157 177.054)"/><path class="ba" d="M383.784,427.677l-8.242-10.905-6.282,9.4-2.06-1.357,8.191-12.312,5.93,7.789Z" transform="translate(-326.116 -333.231)"/></g><g class="bb" transform="translate(1.206 1.005)"><path class="bc" d="M352.139,546.318a4.171,4.171,0,0,0,0,8.342H394.4a4.171,4.171,0,1,0,0-8.342Zm42.214,11.86H352.089a7.689,7.689,0,1,1,0-15.378h42.264a7.689,7.689,0,1,1,0,15.378Z" transform="translate(-314.54 -398.166)"/><path class="bc" d="M354.369,583.618a12.112,12.112,0,0,0,11.257,10.252l1.407.1.2,1.407a9.242,9.242,0,0,0,18.293.05l.2-1.407,1.407-.1a12.011,12.011,0,0,0,11.207-10.252H354.369Zm22.011,23.167a12.705,12.705,0,0,1-12.363-9.548A15.538,15.538,0,0,1,350.7,581.859V580.1h51.36v1.759a15.576,15.576,0,0,1-13.317,15.378A12.662,12.662,0,0,1,376.38,606.785Z" transform="translate(-317.674 -416.866)"/><path class="bc" d="M318.97,391.074h48.721V373.99l.251-.4a282.37,282.37,0,0,1,18.916-27.625A54.1,54.1,0,0,0,398.7,312.047a55.219,55.219,0,0,0-110.437,0,54.157,54.157,0,0,0,11.791,33.919,245.134,245.134,0,0,1,18.615,27.125l.251.4v17.584Zm52.283,3.5h-55.8V374.44a245,245,0,0,0-18.113-26.326A57.556,57.556,0,0,1,284.8,312.047a58.732,58.732,0,0,1,117.462,0,57.5,57.5,0,0,1-12.594,36.067,266.316,266.316,0,0,0-18.415,26.826Z" transform="translate(-284.8 -253.6)"/><rect class="bc" width="4.02" height="62.416" transform="translate(35.969 77.671) rotate(-12.357)"/><rect class="bc" width="63.723" height="3.518" transform="matrix(0.21, -0.978, 0.978, 0.21, 64.239, 139.156)"/><rect class="bc" width="19.75" height="3.518" transform="translate(49.157 177.104)"/><path class="bc" d="M383.384,427.076l-8.443-10.8-6.131,9.5-2.111-1.307L374.741,412l6.031,7.739Z" transform="translate(-325.617 -332.781)"/></g><g class="bd" transform="translate(1.005 0.804)"><path class="be" d="M351.689,545.918a4.171,4.171,0,1,0,0,8.342h42.264a4.171,4.171,0,1,0,0-8.342Zm42.264,11.86H351.689a7.689,7.689,0,1,1,0-15.378h42.264a7.689,7.689,0,1,1,0,15.378Z" transform="translate(-314.14 -397.766)"/><path class="be" d="M353.918,583.268a12.112,12.112,0,0,0,11.257,10.252l1.407.1.2,1.407a9.242,9.242,0,0,0,18.293.05l.2-1.407,1.407-.1a12.011,12.011,0,0,0,11.207-10.252H353.918Zm22.062,23.117a12.705,12.705,0,0,1-12.363-9.548A15.538,15.538,0,0,1,350.3,581.459V579.7h51.36v1.759a15.576,15.576,0,0,1-13.317,15.378A12.748,12.748,0,0,1,375.98,606.385Z" transform="translate(-317.274 -416.466)"/><path class="be" d="M318.57,390.674h48.721V373.59l.251-.4a282.371,282.371,0,0,1,18.916-27.625A54.1,54.1,0,0,0,398.3,311.647a55.219,55.219,0,0,0-110.437,0,54.157,54.157,0,0,0,11.791,33.919,245.116,245.116,0,0,1,18.615,27.125l.251.4v17.584Zm52.233,3.5H315.057V374.04a245,245,0,0,0-18.114-26.326A57.556,57.556,0,0,1,284.4,311.647a58.732,58.732,0,0,1,117.462,0,57.5,57.5,0,0,1-12.594,36.067,266.317,266.317,0,0,0-18.415,26.825v19.632Z" transform="translate(-284.4 -253.2)"/><rect class="be" width="4.02" height="62.416" transform="translate(35.918 77.673) rotate(-12.357)"/><rect class="be" width="63.723" height="3.518" transform="matrix(0.21, -0.978, 0.978, 0.21, 64.189, 139.169)"/><rect class="be" width="19.75" height="3.518" transform="translate(49.107 177.104)"/><path class="be" d="M382.985,426.476l-8.644-10.7-6.031,9.649-2.111-1.307,7.89-12.614,6.131,7.639Z" transform="translate(-325.167 -332.33)"/></g><g class="bf" transform="translate(0.754 0.603)"><path class="bg" d="M351.189,545.518a4.171,4.171,0,1,0,0,8.342h42.264a4.171,4.171,0,1,0,0-8.342Zm42.264,11.86H351.189a7.689,7.689,0,1,1,0-15.378h42.264a7.689,7.689,0,1,1,0,15.378Z" transform="translate(-313.64 -397.366)"/><path class="bg" d="M353.418,582.868a12.112,12.112,0,0,0,11.257,10.252l1.407.1.2,1.407a9.242,9.242,0,0,0,18.293.05l.2-1.407,1.407-.1a12.011,12.011,0,0,0,11.207-10.252H353.418Zm22.062,23.117a12.705,12.705,0,0,1-12.363-9.548A15.538,15.538,0,0,1,349.8,581.059V579.3h51.36v1.759a15.576,15.576,0,0,1-13.317,15.378A12.705,12.705,0,0,1,375.48,605.985Z" transform="translate(-316.774 -416.066)"/><path class="bg" d="M318.07,390.274h48.721V373.19l.251-.4a282.39,282.39,0,0,1,18.916-27.625A54.1,54.1,0,0,0,397.8,311.247a55.219,55.219,0,0,0-110.437,0,54.157,54.157,0,0,0,11.791,33.919,245.121,245.121,0,0,1,18.615,27.125l.251.4v17.584Zm52.233,3.5H314.557V373.64a245.014,245.014,0,0,0-18.113-26.326A57.556,57.556,0,0,1,283.9,311.247a58.732,58.732,0,0,1,117.462,0,57.5,57.5,0,0,1-12.594,36.067,266.315,266.315,0,0,0-18.415,26.826v19.632Z" transform="translate(-283.9 -252.8)"/><rect class="bg" width="4.02" height="62.416" transform="translate(35.917 77.675) rotate(-12.357)"/><rect class="bg" width="63.723" height="3.518" transform="matrix(0.21, -0.978, 0.978, 0.21, 64.189, 139.182)"/><rect class="bg" width="19.75" height="3.518" transform="translate(49.107 177.104)"/><path class="bg" d="M382.635,425.875l-8.845-10.6-5.88,9.749-2.111-1.256L373.439,411l6.332,7.588Z" transform="translate(-324.717 -331.88)"/></g><g class="bh" transform="translate(0.503 0.402)"><path class="bi" d="M350.689,545.118a4.171,4.171,0,1,0,0,8.342h42.264a4.171,4.171,0,1,0,0-8.342Zm42.264,11.86H350.689a7.689,7.689,0,1,1,0-15.378h42.264a7.689,7.689,0,1,1,0,15.378Z" transform="translate(-313.14 -396.965)"/><path class="bi" d="M352.918,582.518a12.112,12.112,0,0,0,11.257,10.252l1.407.1.2,1.407a9.242,9.242,0,0,0,18.293.05l.2-1.407,1.407-.1a12.011,12.011,0,0,0,11.207-10.252H352.918Zm22.062,23.167a12.705,12.705,0,0,1-12.363-9.548A15.538,15.538,0,0,1,349.3,580.759V579h51.36v1.759a15.576,15.576,0,0,1-13.317,15.378A12.761,12.761,0,0,1,374.98,605.685Z" transform="translate(-316.274 -415.716)"/><path class="bi" d="M317.57,389.874h48.721V372.79l.251-.4a282.367,282.367,0,0,1,18.916-27.625A54.1,54.1,0,0,0,397.3,310.847a55.219,55.219,0,0,0-110.437,0,54.157,54.157,0,0,0,11.791,33.919,245.124,245.124,0,0,1,18.615,27.125l.251.4v17.584Zm52.233,3.5H314.057V373.24a245.014,245.014,0,0,0-18.113-26.326A57.555,57.555,0,0,1,283.4,310.847a58.732,58.732,0,0,1,117.462,0,57.5,57.5,0,0,1-12.594,36.067,266.31,266.31,0,0,0-18.415,26.826v19.632Z" transform="translate(-283.4 -252.4)"/><rect class="bi" width="4.02" height="62.416" transform="translate(35.964 77.666) rotate(-12.357)"/><rect class="bi" width="63.723" height="3.518" transform="matrix(0.21, -0.978, 0.978, 0.21, 64.189, 139.195)"/><rect class="bi" width="19.75" height="3.518" transform="translate(49.107 177.104)"/><path class="bi" d="M382.186,425.275l-9-10.5-5.729,9.9-2.161-1.256,7.488-12.915,6.433,7.488Z" transform="translate(-324.217 -331.43)"/></g><g class="bj" transform="translate(0.251 0.251)"><path class="bk" d="M350.239,544.718a4.171,4.171,0,1,0,0,8.342H392.5a4.171,4.171,0,1,0,0-8.342Zm42.214,11.86H350.189a7.689,7.689,0,0,1,0-15.378h42.264a7.689,7.689,0,1,1,0,15.378Z" transform="translate(-312.64 -396.616)"/><path class="bk" d="M352.418,582.118a12.112,12.112,0,0,0,11.257,10.252l1.407.1.2,1.407a9.242,9.242,0,0,0,18.293.05l.2-1.407,1.407-.1a12.011,12.011,0,0,0,11.207-10.252H352.418Zm22.062,23.167a12.705,12.705,0,0,1-12.363-9.548A15.538,15.538,0,0,1,348.8,580.359V578.6h51.36v1.759a15.576,15.576,0,0,1-13.317,15.378A12.718,12.718,0,0,1,374.48,605.285Z" transform="translate(-315.774 -415.366)"/><path class="bk" d="M317.07,389.524h48.721V372.44l.251-.4a282.378,282.378,0,0,1,18.916-27.625A54.1,54.1,0,0,0,396.8,310.5a55.219,55.219,0,0,0-110.437,0,54.157,54.157,0,0,0,11.791,33.919,245.115,245.115,0,0,1,18.615,27.125l.251.4v17.584Zm52.233,3.5H313.557V372.939a245.011,245.011,0,0,0-18.113-26.326A57.555,57.555,0,0,1,282.9,310.547a58.732,58.732,0,0,1,117.462,0,57.5,57.5,0,0,1-12.594,36.067,266.311,266.311,0,0,0-18.415,26.825v19.582Z" transform="translate(-282.9 -252.1)"/><rect class="bk" width="4.02" height="62.416" transform="translate(35.963 77.618) rotate(-12.357)"/><rect class="bk" width="63.723" height="3.518" transform="matrix(0.21, -0.978, 0.978, 0.21, 64.239, 139.168)"/><rect class="bk" width="19.75" height="3.518" transform="translate(49.107 177.054)"/><path class="bk" d="M381.786,424.674l-9.2-10.4-5.629,10-2.161-1.206L372.137,410l6.583,7.438Z" transform="translate(-323.717 -331.03)"/></g><path class="bl" d="M349.739,544.318a4.171,4.171,0,0,0,0,8.342H392a4.171,4.171,0,0,0,0-8.342Zm42.214,11.86H349.689a7.689,7.689,0,0,1,0-15.378h42.264a7.689,7.689,0,1,1,0,15.378Z" transform="translate(-312.14 -396.166)"/><path class="bl" d="M351.969,581.718a12.112,12.112,0,0,0,11.257,10.252l1.407.1.2,1.407a9.242,9.242,0,0,0,18.293.05l.2-1.407,1.407-.1a12.011,12.011,0,0,0,11.207-10.252H351.969Zm22.011,23.167a12.705,12.705,0,0,1-12.363-9.548A15.538,15.538,0,0,1,348.3,579.959V578.2h51.36v1.759a15.576,15.576,0,0,1-13.317,15.378A12.718,12.718,0,0,1,373.98,604.885Z" transform="translate(-315.274 -414.916)"/><path class="bl" d="M316.57,389.074h48.721V371.99l.251-.4a282.377,282.377,0,0,1,18.916-27.625A54.1,54.1,0,0,0,396.3,310.047a55.219,55.219,0,0,0-110.437,0,54.157,54.157,0,0,0,11.791,33.919,245.121,245.121,0,0,1,18.615,27.125l.251.4v17.584Zm52.283,3.5h-55.8V372.44a245.015,245.015,0,0,0-18.113-26.326A57.556,57.556,0,0,1,282.4,310.047a58.732,58.732,0,0,1,117.462,0,57.5,57.5,0,0,1-12.594,36.067,266.313,266.313,0,0,0-18.415,26.826v19.632Z" transform="translate(-282.4 -251.6)"/><rect class="bl" width="4.02" height="62.416" transform="translate(35.973 77.719) rotate(-12.357)"/><rect class="bl" width="63.723" height="3.518" transform="matrix(0.21, -0.978, 0.978, 0.21, 64.239, 139.231)"/><rect class="bl" width="19.75" height="3.518" transform="translate(49.157 177.104)"/><path class="bl" d="M381.387,424.074l-9.4-10.252-5.478,10.1-2.211-1.206,7.136-13.217,6.734,7.337Z" transform="translate(-323.217 -330.529)"/></g><path class="bm" d="M391.953,556.178H349.689a7.689,7.689,0,0,1,0-15.378h42.264a7.689,7.689,0,1,1,0,15.378Zm-42.214-11.86a4.171,4.171,0,0,0,0,8.342H392a4.171,4.171,0,0,0,0-8.342Z" transform="translate(-312.14 -396.166)"/><path class="bm" d="M373.98,604.885a12.705,12.705,0,0,1-12.363-9.548A15.538,15.538,0,0,1,348.3,579.959V578.2h51.36v1.759a15.576,15.576,0,0,1-13.317,15.378A12.718,12.718,0,0,1,373.98,604.885Zm-22.011-23.167a12.112,12.112,0,0,0,11.257,10.252l1.407.1.2,1.407a9.242,9.242,0,0,0,18.293.05l.2-1.407,1.407-.1a12.011,12.011,0,0,0,11.207-10.252H351.969Z" transform="translate(-315.274 -414.916)"/><path class="bm" d="M368.853,392.571h-55.8V372.44a245.015,245.015,0,0,0-18.113-26.326A57.556,57.556,0,0,1,282.4,310.047a58.732,58.732,0,0,1,117.462,0,57.5,57.5,0,0,1-12.594,36.067,266.313,266.313,0,0,0-18.415,26.826v19.632Zm-52.283-3.5h48.721V371.99l.251-.4a282.377,282.377,0,0,1,18.916-27.625A54.1,54.1,0,0,0,396.3,310.047a55.219,55.219,0,0,0-110.437,0,54.157,54.157,0,0,0,11.791,33.919,245.121,245.121,0,0,1,18.615,27.125l.251.4v17.584Z" transform="translate(-282.4 -251.6)"/><g class="bn" transform="matrix(1, 0, 0, 1, 0, 0)"><path class="bm" d="M400,415.4l11.257,11.508,6.684-7.94,1.96,1.658-8.493,10Z" transform="translate(-341.01 -333.5)"/></g><rect class="bm" width="4.02" height="62.416" transform="translate(35.973 77.719) rotate(-12.357)"/><rect class="bm" width="63.723" height="3.518" transform="matrix(0.21, -0.978, 0.978, 0.21, 64.238, 139.231)"/><rect class="bm" width="19.75" height="3.518" transform="translate(49.157 177.104)"/><path class="bm" d="M379.187,424.375l-9.247-10.453-5.629,10.051-2.211-1.256,7.387-13.116Z" transform="translate(-322.12 -330.58)"/></g></g></g></svg>