<svg xmlns="http://www.w3.org/2000/svg" width="235.084" height="85.055" viewBox="0 0 235.084 85.055"><g transform="translate(-460.54 -359.879)"><g transform="translate(594.49 432.151)"><g transform="translate(0 0)"><path d="M1028.462,666.134v3.917a2.727,2.727,0,0,1,2.557-1.447,3.182,3.182,0,0,1,.012,6.361,2.9,2.9,0,0,1-2.569-1.459v1.36h-.6v-8.731Zm.012,5.638a2.464,2.464,0,0,0,2.52,2.594,2.589,2.589,0,0,0,0-5.176A2.468,2.468,0,0,0,1028.474,671.772Z" transform="translate(-1027.863 -666.097)" fill="#fff"/><path d="M1063.286,677.017l-3.754,8.731h-.649l1.135-2.644-2.469-6.086h.661l1.434,3.642.723,1.784.711-1.8,1.547-3.63Z" transform="translate(-1050.54 -674.41)" fill="#fff"/><path d="M1099.911,679.774a3.1,3.1,0,0,1,3.13-3.18,2.878,2.878,0,0,1,3.044,3.467h-5.551a2.424,2.424,0,0,0,2.507,2.282,2.9,2.9,0,0,0,2.22-.935l.437.349a3.387,3.387,0,0,1-2.657,1.185A3.022,3.022,0,0,1,1099.911,679.774Zm5.625-.249a2.261,2.261,0,0,0-2.495-2.37,2.463,2.463,0,0,0-2.507,2.37Z" transform="translate(-1082.9 -674.087)" fill="#fff"/><path d="M1135.823,677.816a2.634,2.634,0,0,0-1.921-.649c-.96-.012-1.883.349-1.859,1.135.025.823,1.1.985,1.871,1.122,1.1.187,2.607.374,2.544,1.809-.037,1.359-1.446,1.721-2.532,1.721a3.175,3.175,0,0,1-2.694-1.235l.449-.4a2.733,2.733,0,0,0,2.257,1.048c.748,0,1.883-.2,1.921-1.172.025-.886-1-1.06-2.008-1.223-1.2-.2-2.382-.424-2.394-1.659-.013-1.21,1.2-1.734,2.445-1.721a3.229,3.229,0,0,1,2.295.823Z" transform="translate(-1106.826 -674.086)" fill="#fff"/><path d="M1157.741,674.744v-5.575h-1.26v-.536h1.26v-.549c0-1.222.486-2.108,1.846-2.108a2.017,2.017,0,0,1,1.222.424l-.3.449a1.685,1.685,0,0,0-.948-.312c-.773,0-1.222.474-1.222,1.547v.549h2.033v.536h-2.033v5.575Z" transform="translate(-1126.113 -665.976)" fill="#fff"/><path d="M1177.558,679.774a3.1,3.1,0,0,1,3.13-3.18,2.877,2.877,0,0,1,3.043,3.467h-5.55a2.424,2.424,0,0,0,2.507,2.282,2.9,2.9,0,0,0,2.22-.935l.437.349a3.386,3.386,0,0,1-2.657,1.185A3.022,3.022,0,0,1,1177.558,679.774Zm5.625-.249a2.261,2.261,0,0,0-2.495-2.37,2.463,2.463,0,0,0-2.507,2.37Z" transform="translate(-1142.214 -674.087)" fill="#fff"/><path d="M1210.986,676.812l.025,1.1a2.168,2.168,0,0,1,2.045-1.16,2.408,2.408,0,0,1,1.322.362l-.275.5a1.981,1.981,0,0,0-1.048-.287,2.047,2.047,0,0,0-2.033,2.058v3.592h-.611v-6.161Z" transform="translate(-1167.31 -674.205)" fill="#fff"/><path d="M1235.952,676.774v6.161h-.611v-1.31a2.88,2.88,0,0,1-2.519,1.409,3.168,3.168,0,0,1,0-6.336,2.8,2.8,0,0,1,2.519,1.422v-1.347Zm-5.65,3.081a2.475,2.475,0,0,0,2.52,2.582,2.575,2.575,0,0,0,0-5.151A2.464,2.464,0,0,0,1230.3,679.855Z" transform="translate(-1182.038 -674.167)" fill="#fff"/><path d="M1276.278,679.774a3.1,3.1,0,0,1,3.131-3.18,2.878,2.878,0,0,1,3.043,3.467H1276.9a2.424,2.424,0,0,0,2.507,2.282,2.9,2.9,0,0,0,2.22-.935l.437.349a3.387,3.387,0,0,1-2.657,1.185A3.022,3.022,0,0,1,1276.278,679.774Zm5.626-.249a2.261,2.261,0,0,0-2.495-2.37,2.463,2.463,0,0,0-2.507,2.37Z" transform="translate(-1217.625 -674.087)" fill="#fff"/><path d="M1309.731,676.653v1.1a2.452,2.452,0,0,1,2.2-1.21,2.57,2.57,0,0,1,2.781,2.719v3.555h-.611v-3.542a1.973,1.973,0,0,0-2.2-2.133,2.141,2.141,0,0,0-2.157,2.245v3.43h-.611v-6.161Z" transform="translate(-1242.722 -674.046)" fill="#fff"/><path d="M1338.025,679.774a3.1,3.1,0,0,1,3.13-3.18,2.878,2.878,0,0,1,3.044,3.467h-5.551a2.424,2.424,0,0,0,2.507,2.282,2.9,2.9,0,0,0,2.22-.935l.437.349a3.387,3.387,0,0,1-2.657,1.185A3.022,3.022,0,0,1,1338.025,679.774Zm5.625-.249a2.261,2.261,0,0,0-2.495-2.37,2.463,2.463,0,0,0-2.507,2.37Z" transform="translate(-1264.793 -674.087)" fill="#fff"/><path d="M1371.453,676.812l.025,1.1a2.168,2.168,0,0,1,2.045-1.16,2.407,2.407,0,0,1,1.322.362l-.274.5a1.982,1.982,0,0,0-1.048-.287,2.046,2.046,0,0,0-2.033,2.058v3.592h-.611v-6.161Z" transform="translate(-1289.89 -674.205)" fill="#fff"/><path d="M1395.528,675.96l.4.349-.6.7a3.032,3.032,0,0,1-.9,4.715,2.259,2.259,0,0,1,1.684,2.208c0,1.659-1.3,2.457-2.931,2.457s-2.919-.9-2.919-2.457h.611c0,1.26,1.073,1.858,2.307,1.858s2.332-.549,2.332-1.858-1.185-1.846-2.332-1.846a3,3,0,0,1,0-5.987,3.127,3.127,0,0,1,1.746.561ZM1390.9,679.1a2.257,2.257,0,0,0,2.282,2.37,2.364,2.364,0,0,0,2.307-2.37,2.216,2.216,0,0,0-2.307-2.395A2.178,2.178,0,0,0,1390.9,679.1Z" transform="translate(-1304.699 -673.603)" fill="#fff"/><path d="M1420.512,666.938a.493.493,0,0,1-.985,0A.493.493,0,0,1,1420.512,666.938Zm-.811,1.983v6.187h.611v-6.187Z" transform="translate(-1327.052 -666.339)" fill="#fff"/><path d="M1435.085,676.774v6.161h-.611v-1.31a2.881,2.881,0,0,1-2.519,1.409,3.168,3.168,0,0,1,0-6.336,2.8,2.8,0,0,1,2.519,1.422v-1.347Zm-5.65,3.081a2.475,2.475,0,0,0,2.52,2.582,2.575,2.575,0,0,0,0-5.151A2.464,2.464,0,0,0,1429.435,679.855Z" transform="translate(-1334.154 -674.167)" fill="#fff"/></g></g><g transform="translate(460.54 359.879)"><path d="M539.63,438.969H460.54v-79.09h79.09Zm-77.344-1.746h75.6v-75.6h-75.6Z" transform="translate(-460.54 -359.879)" fill="#fff"/></g><g transform="translate(564.334 369.193)"><g transform="translate(0 0.424)"><path d="M910.489,401.123v23.235a15.437,15.437,0,0,1,13.059-6.275c11.872,0,17.13,8.056,17.13,20.352v22.048H930.332V438.519c0-7.632-3.986-10.854-9.5-10.854-6.105,0-10.345,5.173-10.345,11.448v21.369H900.143v-51.3a8.064,8.064,0,0,1,8.064-8.064Z" transform="translate(-900.143 -401.123)" fill="#fff"/></g><g transform="translate(42.602 17.978)"><path d="M1090.923,475.467v21.879c0,6.4,2.8,10.32,9.5,10.412,6.23.086,11.274-4.2,11.274-10.073V484.2a8.731,8.731,0,0,1,8.731-8.732h1.529v41.891H1111.7v-4.817c-4.325,4.24-7.971,5.41-13.822,5.41-10.006,0-17.3-7.547-17.3-20.521V475.467Z" transform="translate(-1080.577 -475.467)" fill="#fff"/></g><g transform="translate(85.92)"><path d="M1309.41,399.326V458.6h-10.341l0-5.767c-3.223,5-8.4,6.7-13.483,6.7-12.3,0-21.539-8.141-21.539-21.879,0-14.416,9.074-21.878,21.285-21.878,4.41,0,11.279,2.374,13.738,6.7V407.586a8.26,8.26,0,0,1,8.26-8.26Zm-35.022,38.33c0,7.293,5.258,12.3,11.872,12.3a12.254,12.254,0,0,0,0-24.507C1279.645,425.445,1274.388,430.109,1274.388,437.656Z" transform="translate(-1264.042 -399.326)" fill="#fff"/></g></g><g transform="translate(475.596 374.931)"><rect width="59.445" height="2.844" transform="matrix(0.707, -0.707, 0.707, 0.707, 2.468, 44.506)" fill="#fff"/><rect width="62.936" height="6.335" transform="matrix(0.707, -0.707, 0.707, 0.707, 0, 44.507)" fill="#fff"/></g></g></svg>