<svg xmlns="http://www.w3.org/2000/svg" xmlns:xlink="http://www.w3.org/1999/xlink" width="555" height="547" viewBox="0 0 555 547"><defs><style>.a{fill:none;}.b{clip-path:url(#a);}.c{clip-path:url(#b);}.d{opacity:0.2;}.e{fill:#fff;}</style><clipPath id="a"><rect class="a" width="555" height="547"/></clipPath><clipPath id="b"><rect class="a" width="555" height="547" transform="translate(809 221.203)"/></clipPath></defs><g class="b"><g class="c" transform="translate(-809 -221.203)"><g class="d" transform="translate(-101.833 -229.706)"><path class="e" d="M1150.7,551.774a155.7,155.7,0,0,0-16.018-20.126,205.8,205.8,0,0,1-77.154,42.581h-.008a204.415,204.415,0,0,1-97.106,4.454c4.618,7.688,14.167,22.011,31.65,39.148,13.64,13.376,50.056,36.112,110.688,30.572,19.657-6.025,56.8-36.054,60.715-55.34C1166.3,579.127,1158.083,562.92,1150.7,551.774Z" transform="translate(221.13 382.85)"/><path class="e" d="M1088.146,510.274c-2.5-2.124-14.883-9.721-26.061-15.945-18.043-10.215-32.136-14.891-50.764-8.569-10.158,3.449-19.5,13.178-27.773,28.926a154.245,154.245,0,0,0-10.363,25.4,204.286,204.286,0,0,1,127.875,127.67c7.3-13.541,13.031-28.711,17.459-46.211a96.928,96.928,0,0,0,1.959-34.959C1118.248,567.368,1107.859,538.08,1088.146,510.274Z" transform="translate(313.49 30.252)"/><path class="e" d="M1126.122,616.908a249.546,249.546,0,0,0-14.116-36.037c-1.038-2.091-2.1-4.165-3.211-6.207a295.787,295.787,0,0,0-37.4-54.912s-14.866-16.825-21.41-22.752l-7.63-6.783-4.585-3.712c29.946,42.038,35.98,81.014,28.678,109.841-8.33,32.893-19.574,50.154-22.225,54.863l.091.313-.2-.115c-.188.346-.329.618-.411.807,0,0-51.759,91.929-53.43,98.951s-27.238,47.619,13.96,84.158c.024.033.337.338.88.84,5.877,5.384,40.507,35.3,67.49,28.761,20.6-4.988,30.613-17.278,40.786-36.3,5.449-11.466,8.471-17.681,13.829-33.716,0,0,.52-1.547,1.351-4.371A329.531,329.531,0,0,0,1140.124,729a310.218,310.218,0,0,0,.667-36.778c-.271-6.528-.658-10.4-.658-10.4C1138.609,659.226,1132.534,636.022,1126.122,616.908Z" transform="translate(369.311 56.4)"/><path class="e" d="M974.941,490.744c-10.487,41.437,17.912,61.209,28.712,68.733a37.159,37.159,0,0,1,4.255,3.218c2.889,2.807,47.372,27.469,89.468,50.2A196.552,196.552,0,0,0,974.941,490.744Z" transform="translate(309.668 87.054)"/><path class="e" d="M1053.393,537.567a29.005,29.005,0,0,1-4.478,1.844c-4.091,1.21-46.655,26.555-88.143,51.892a196.946,196.946,0,0,0,165.84-45.232c-30.16-28.489-61-14.183-72.742-8.726l-.914-1.943.905,1.943Z" transform="translate(223.733 362.938)"/><path class="e" d="M1172.711,698.935c-25.213-24.711-34.21-43.651-36.522-47.323l-.165-.239-.14-.206s-53.381-91-58.6-95.979-27.436-47.5-79.755-30.3c-.049,0-.873.239-2.28.691-10.026,3.268-50.105,17.985-57.711,43.487-6.058,20.315-.477,35.148,10.841,53.513,7.516,12.388,22.777,28.8,22.777,28.8l3.885,4.445,7.054,7.368c6.166,6.322,23.534,20.562,23.534,20.562a296.519,296.519,0,0,0,56.262,35.337q3.124,1.543,6.321,2.979a248.848,248.848,0,0,0,36.532,12.768c19.336,5.7,42.754,10.915,65.383,11.606,0,0,3.885.239,10.421.272a310.037,310.037,0,0,0,36.729-2.033,329.841,329.841,0,0,0,61.069-13.829l3.712-1.408C1230.661,734.166,1193.948,719.753,1172.711,698.935Z" transform="translate(37.773 304.504)"/><path class="e" d="M943.8,664.666l.7-.189c40.737-11.2,44.31-45.4,45.676-58.468a36.76,36.76,0,0,1,.749-5.21c1.095-3.984,1.194-54.031.733-103.2a196.981,196.981,0,0,0-44.574,82.471A194.683,194.683,0,0,0,943.8,664.666Z" transform="translate(78.163 136.633)"/><path class="e" d="M935.043,580.02c-11.968,28.975-1.5,70.519,13.047,83.78,17.451,15.92,55.167,9.441,66.691,6.989a202.1,202.1,0,0,1,3.408-87.723,204.247,204.247,0,0,1,46.8-86.134c-9.055,0-26.39.823-50.163,7.054C996.385,508.851,961.392,525.2,935.043,580.02Z" transform="translate(0 131.796)"/><path class="e" d="M1244.539,496.892c-14.323-15.632-29.921-18.455-51.5-18.167-14.488.082-36.408,4.758-36.408,4.758l-5.812,1.054-9.943,2.272c-8.594,2.042-29.724,9.647-29.724,9.647a296.1,296.1,0,0,0-59.209,30.135c-1.951,1.251-3.885,2.56-5.8,3.893a250.38,250.38,0,0,0-29.715,24.8c-14.817,13.664-31.3,31.082-43.512,50.146,0,0-2.206,3.219-5.589,8.8A312.029,312.029,0,0,0,950.215,646.8a329.387,329.387,0,0,0-19.476,59.5l-.7,3.91c22.34-46.533,53.554-70.643,82.314-78.174,34.152-8.948,55.027-6.956,59.365-7.054.214-.008.4-.016.543-.033h.181c4.675.041,105.469.865,112.261-1.021,6.956-1.926,54.854.839,66.946-52.879.017-.041.124-.453.3-1.169C1253.84,562.11,1263.282,517.347,1244.539,496.892Z" transform="translate(1.489 0)"/><path class="e" d="M958.808,536.9l-.173-.05-.23-.074.148.255Z" transform="translate(206.609 419.912)"/><path class="e" d="M999.911,517.468" transform="translate(506.766 280.308)"/><path class="e" d="M988.8,507.913l-.082-.312-.115.189Z" transform="translate(424.956 208.948)"/><path class="e" d="M948.273,495.892c-.009.3-.025.519-.042.708l.765-.716-.181-.008A5.169,5.169,0,0,1,948.273,495.892Z" transform="translate(133.044 124.159)"/></g></g></g></svg>