<svg xmlns="http://www.w3.org/2000/svg" width="174" height="58.54" viewBox="0 0 174 58.54"><defs><style>.a{fill:#424242;}.b{fill:#f5426c;}</style></defs><g transform="translate(-2311.96 -44.57)"><g transform="translate(2311.96 44.57)"><path class="a" d="M2370.5,103.11H2311.96V44.57H2370.5Zm-57.247-1.293h55.955V45.862h-55.955Z" transform="translate(-2311.96 -44.57)"/></g><g transform="translate(2388.785 51.464)"><g transform="translate(0 0)"><g transform="translate(0 0.314)"><path class="a" d="M2695.059,79.794v17.2a11.426,11.426,0,0,1,9.666-4.645c8.787,0,12.679,5.962,12.679,15.062v16.32h-7.658V107.474c0-5.649-2.948-8.034-7.03-8.034-4.519,0-7.657,3.829-7.657,8.474V123.73H2687.4V85.763a5.969,5.969,0,0,1,5.969-5.969Z" transform="translate(-2687.4 -79.794)"/></g><g transform="translate(31.534 13.307)"><path class="a" d="M2849.162,143.288v16.194c0,4.74,2.072,7.639,7.033,7.707,4.611.064,8.344-3.107,8.344-7.456v-9.982a6.463,6.463,0,0,1,6.463-6.463h1.132v31.007h-7.6v-3.565c-3.2,3.138-5.9,4.006-10.231,4.006-7.406,0-12.8-5.586-12.8-15.191V143.288Z" transform="translate(-2841.504 -143.288)"/></g><g transform="translate(63.595)"><path class="a" d="M3031.769,78.26v43.873h-7.654l0-4.268c-2.385,3.7-6.214,4.959-9.98,4.959-9.1,0-15.943-6.025-15.943-16.194,0-10.67,6.716-16.194,15.754-16.194,3.264,0,8.348,1.757,10.168,4.959V84.373a6.113,6.113,0,0,1,6.114-6.113Zm-25.922,28.37a8.884,8.884,0,1,0,17.763,0,8.829,8.829,0,0,0-8.976-9.037c-4.895,0-8.789,3.452-8.789,9.037Z" transform="translate(-2998.189 -78.26)"/></g></g></g><g transform="translate(2323.104 55.719)"><rect class="b" width="43.999" height="2.105" transform="translate(1.827 32.933) rotate(-45)"/><rect class="b" width="46.583" height="4.689" transform="translate(0 32.934) rotate(-45)"/></g></g></svg>